<svg width="1280" height="134" viewBox="0 0 1280 134" fill="none" xmlns="http://www.w3.org/2000/svg">
<rect x="445" y="5" width="16" height="2" fill="#D9D9D9"/>
<path d="M478.045 12H474.278V0.363636H478.165C479.305 0.363636 480.284 0.596591 481.102 1.0625C481.92 1.52462 482.547 2.18939 482.983 3.05682C483.422 3.92045 483.642 4.95644 483.642 6.16477C483.642 7.37689 483.42 8.41856 482.977 9.28977C482.538 10.161 481.902 10.8314 481.068 11.3011C480.235 11.767 479.227 12 478.045 12ZM476.034 10.4659H477.949C478.835 10.4659 479.572 10.2992 480.159 9.96591C480.746 9.62879 481.186 9.14205 481.477 8.50568C481.769 7.86553 481.915 7.08523 481.915 6.16477C481.915 5.25189 481.769 4.47727 481.477 3.84091C481.189 3.20455 480.759 2.72159 480.188 2.39205C479.616 2.0625 478.905 1.89773 478.057 1.89773H476.034V10.4659ZM498.825 12V0.363636H506.121V1.875H500.581V5.42045H505.74V6.92614H500.581V10.4886H506.189V12H498.825ZM527.812 3.42045C527.752 2.88258 527.502 2.46591 527.062 2.17045C526.623 1.87121 526.07 1.72159 525.403 1.72159C524.926 1.72159 524.513 1.79735 524.165 1.94886C523.816 2.09659 523.545 2.30114 523.352 2.5625C523.163 2.82008 523.068 3.11364 523.068 3.44318C523.068 3.7197 523.133 3.95833 523.261 4.15909C523.394 4.35985 523.566 4.52841 523.778 4.66477C523.994 4.79735 524.225 4.90909 524.472 5C524.718 5.08712 524.955 5.15909 525.182 5.21591L526.318 5.51136C526.689 5.60227 527.07 5.72538 527.46 5.88068C527.85 6.03598 528.212 6.24053 528.545 6.49432C528.879 6.74811 529.148 7.0625 529.352 7.4375C529.561 7.8125 529.665 8.26136 529.665 8.78409C529.665 9.44318 529.494 10.0284 529.153 10.5398C528.816 11.0511 528.326 11.4545 527.682 11.75C527.042 12.0455 526.267 12.1932 525.358 12.1932C524.487 12.1932 523.733 12.0549 523.097 11.7784C522.46 11.5019 521.962 11.1098 521.602 10.6023C521.242 10.0909 521.044 9.48485 521.006 8.78409H522.767C522.801 9.20455 522.938 9.55492 523.176 9.83523C523.419 10.1117 523.727 10.3182 524.102 10.4545C524.481 10.5871 524.896 10.6534 525.347 10.6534C525.843 10.6534 526.284 10.5758 526.67 10.4205C527.061 10.2614 527.367 10.0417 527.591 9.76136C527.814 9.47727 527.926 9.14583 527.926 8.76705C527.926 8.42235 527.828 8.14015 527.631 7.92045C527.438 7.70076 527.174 7.51894 526.841 7.375C526.511 7.23106 526.138 7.10417 525.722 6.99432L524.347 6.61932C523.415 6.36553 522.676 5.99242 522.131 5.5C521.589 5.00758 521.318 4.35606 521.318 3.54545C521.318 2.875 521.5 2.28977 521.864 1.78977C522.227 1.28977 522.72 0.901515 523.341 0.625C523.962 0.344697 524.663 0.204545 525.443 0.204545C526.231 0.204545 526.926 0.342803 527.528 0.619318C528.134 0.895833 528.612 1.27652 528.96 1.76136C529.309 2.24242 529.491 2.79545 529.506 3.42045H527.812ZM546.518 0.363636V12H544.763V0.363636H546.518ZM569.95 4.03977C569.84 3.69508 569.693 3.38636 569.507 3.11364C569.325 2.83712 569.107 2.60227 568.854 2.40909C568.6 2.21212 568.31 2.0625 567.984 1.96023C567.662 1.85795 567.308 1.80682 566.922 1.80682C566.267 1.80682 565.676 1.97538 565.149 2.3125C564.623 2.64962 564.206 3.14394 563.899 3.79545C563.596 4.44318 563.445 5.23674 563.445 6.17614C563.445 7.11932 563.598 7.91667 563.905 8.56818C564.212 9.2197 564.632 9.71402 565.166 10.0511C565.7 10.3883 566.308 10.5568 566.99 10.5568C567.623 10.5568 568.174 10.428 568.643 10.1705C569.117 9.91288 569.482 9.54924 569.74 9.07955C570.001 8.60606 570.132 8.04924 570.132 7.40909L570.587 7.49432H567.257V6.04545H571.831V7.36932C571.831 8.34659 571.623 9.19508 571.206 9.91477C570.793 10.6307 570.221 11.1837 569.49 11.5739C568.763 11.964 567.929 12.1591 566.99 12.1591C565.937 12.1591 565.013 11.9167 564.217 11.4318C563.426 10.947 562.808 10.2595 562.365 9.36932C561.922 8.47538 561.7 7.41477 561.7 6.1875C561.7 5.25947 561.829 4.42614 562.087 3.6875C562.344 2.94886 562.706 2.32197 563.172 1.80682C563.642 1.28788 564.193 0.892045 564.825 0.619318C565.462 0.342803 566.157 0.204545 566.911 0.204545C567.539 0.204545 568.125 0.297348 568.666 0.482954C569.212 0.66856 569.696 0.931818 570.121 1.27273C570.549 1.61364 570.903 2.01894 571.183 2.48864C571.464 2.95455 571.653 3.47159 571.751 4.03977H569.95ZM596.452 0.363636V12H594.838L588.923 3.46591H588.815V12H587.06V0.363636H588.685L594.605 8.90909H594.713V0.363636H596.452ZM630.23 12H628.366L632.554 0.363636H634.582L638.77 12H636.906L633.616 2.47727H633.526L630.23 12ZM630.543 7.44318H636.588V8.92045H630.543V7.44318ZM653.45 12V0.363636H657.598C658.503 0.363636 659.253 0.528409 659.848 0.857954C660.443 1.1875 660.888 1.63826 661.183 2.21023C661.479 2.77841 661.626 3.41856 661.626 4.13068C661.626 4.84659 661.477 5.49053 661.178 6.0625C660.882 6.63068 660.435 7.08144 659.837 7.41477C659.242 7.74432 658.494 7.90909 657.592 7.90909H654.74V6.42045H657.433C658.005 6.42045 658.469 6.32197 658.825 6.125C659.181 5.92424 659.443 5.65152 659.609 5.30682C659.776 4.96212 659.859 4.57008 659.859 4.13068C659.859 3.69129 659.776 3.30114 659.609 2.96023C659.443 2.61932 659.179 2.35227 658.82 2.15909C658.464 1.96591 657.994 1.86932 657.411 1.86932H655.206V12H653.45ZM676.685 12V0.363636H680.832C681.738 0.363636 682.488 0.528409 683.082 0.857954C683.677 1.1875 684.122 1.63826 684.418 2.21023C684.713 2.77841 684.861 3.41856 684.861 4.13068C684.861 4.84659 684.711 5.49053 684.412 6.0625C684.116 6.63068 683.67 7.08144 683.071 7.41477C682.476 7.74432 681.728 7.90909 680.827 7.90909H677.974V6.42045H680.668C681.24 6.42045 681.704 6.32197 682.06 6.125C682.416 5.92424 682.677 5.65152 682.844 5.30682C683.01 4.96212 683.094 4.57008 683.094 4.13068C683.094 3.69129 683.01 3.30114 682.844 2.96023C682.677 2.61932 682.414 2.35227 682.054 2.15909C681.698 1.96591 681.228 1.86932 680.645 1.86932H678.44V12H676.685ZM699.919 12V0.363636H704.067C704.968 0.363636 705.716 0.518939 706.311 0.829545C706.91 1.14015 707.357 1.57008 707.652 2.11932C707.947 2.66477 708.095 3.29545 708.095 4.01136C708.095 4.72348 707.946 5.35038 707.646 5.89205C707.351 6.42992 706.904 6.84848 706.305 7.14773C705.711 7.44697 704.963 7.59659 704.061 7.59659H700.919V6.08523H703.902C704.47 6.08523 704.932 6.00379 705.288 5.84091C705.648 5.67803 705.911 5.44129 706.078 5.13068C706.245 4.82008 706.328 4.44697 706.328 4.01136C706.328 3.57197 706.243 3.19129 706.072 2.86932C705.906 2.54735 705.643 2.30114 705.283 2.13068C704.927 1.95644 704.459 1.86932 703.879 1.86932H701.675V12H699.919ZM705.663 6.75L708.538 12H706.538L703.72 6.75H705.663ZM733.339 6.18182C733.339 7.42424 733.112 8.49242 732.658 9.38636C732.203 10.2765 731.58 10.9621 730.788 11.4432C730 11.9205 729.105 12.1591 728.101 12.1591C727.093 12.1591 726.194 11.9205 725.402 11.4432C724.614 10.9621 723.993 10.2746 723.538 9.38068C723.084 8.48674 722.857 7.42045 722.857 6.18182C722.857 4.93939 723.084 3.87311 723.538 2.98295C723.993 2.08901 724.614 1.40341 725.402 0.926136C726.194 0.445075 727.093 0.204545 728.101 0.204545C729.105 0.204545 730 0.445075 730.788 0.926136C731.58 1.40341 732.203 2.08901 732.658 2.98295C733.112 3.87311 733.339 4.93939 733.339 6.18182ZM731.601 6.18182C731.601 5.23485 731.447 4.4375 731.141 3.78977C730.838 3.13826 730.421 2.64583 729.891 2.3125C729.364 1.97538 728.768 1.80682 728.101 1.80682C727.43 1.80682 726.832 1.97538 726.305 2.3125C725.779 2.64583 725.362 3.13826 725.055 3.78977C724.752 4.4375 724.601 5.23485 724.601 6.18182C724.601 7.12879 724.752 7.92803 725.055 8.57955C725.362 9.22727 725.779 9.7197 726.305 10.0568C726.832 10.3902 727.43 10.5568 728.101 10.5568C728.768 10.5568 729.364 10.3902 729.891 10.0568C730.421 9.7197 730.838 9.22727 731.141 8.57955C731.447 7.92803 731.601 7.12879 731.601 6.18182ZM748.933 12H747.07L751.257 0.363636H753.286L757.473 12H755.609L752.32 2.47727H752.229L748.933 12ZM749.246 7.44318H755.291V8.92045H749.246V7.44318ZM781.271 4.14773H779.499C779.43 3.76894 779.304 3.43561 779.118 3.14773C778.932 2.85985 778.705 2.61553 778.436 2.41477C778.167 2.21401 777.866 2.0625 777.533 1.96023C777.203 1.85795 776.853 1.80682 776.482 1.80682C775.811 1.80682 775.211 1.97538 774.68 2.3125C774.154 2.64962 773.737 3.14394 773.43 3.79545C773.127 4.44697 772.976 5.24242 772.976 6.18182C772.976 7.12879 773.127 7.92803 773.43 8.57955C773.737 9.23106 774.156 9.72348 774.686 10.0568C775.216 10.3902 775.813 10.5568 776.476 10.5568C776.843 10.5568 777.192 10.5076 777.521 10.4091C777.855 10.3068 778.156 10.1572 778.425 9.96023C778.694 9.76326 778.921 9.52273 779.107 9.23864C779.296 8.95076 779.427 8.62121 779.499 8.25L781.271 8.25568C781.177 8.82765 780.993 9.35417 780.72 9.83523C780.451 10.3125 780.105 10.7254 779.68 11.0739C779.26 11.4186 778.779 11.6856 778.237 11.875C777.696 12.0644 777.105 12.1591 776.464 12.1591C775.457 12.1591 774.559 11.9205 773.771 11.4432C772.983 10.9621 772.362 10.2746 771.908 9.38068C771.457 8.48674 771.232 7.42045 771.232 6.18182C771.232 4.93939 771.459 3.87311 771.913 2.98295C772.368 2.08901 772.989 1.40341 773.777 0.926136C774.565 0.445075 775.461 0.204545 776.464 0.204545C777.082 0.204545 777.658 0.29356 778.192 0.471591C778.73 0.645833 779.213 0.903409 779.641 1.24432C780.069 1.58144 780.423 1.99432 780.703 2.48295C780.983 2.9678 781.173 3.52273 781.271 4.14773ZM796.372 12V0.363636H798.128V5.42045H803.929V0.363636H805.69V12H803.929V6.92614H798.128V12H796.372Z" fill="#656D72"/>
<rect x="819" y="5" width="16" height="2" fill="#D9D9D9"/>
<path d="M84.4255 43.671V49.03H90.2675V50.755H84.4255V56.275H90.9575V58H82.3325V41.946H90.9575V43.671H84.4255ZM103.766 45.166C105.299 45.166 106.541 45.6337 107.492 46.569C108.442 47.489 108.918 48.823 108.918 50.571V58H106.848V50.87C106.848 49.6127 106.533 48.6543 105.905 47.995C105.276 47.3203 104.417 46.983 103.329 46.983C102.225 46.983 101.343 47.328 100.684 48.018C100.04 48.708 99.7175 49.7123 99.7175 51.031V58H97.6245V45.396H99.7175V47.19C100.132 46.546 100.691 46.0477 101.397 45.695C102.117 45.3423 102.907 45.166 103.766 45.166ZM120.298 58.207C119.332 58.207 118.466 58.046 117.699 57.724C116.933 57.3867 116.327 56.9267 115.882 56.344C115.438 55.746 115.192 55.0637 115.146 54.297H117.308C117.37 54.9257 117.661 55.4393 118.182 55.838C118.719 56.2367 119.417 56.436 120.275 56.436C121.073 56.436 121.701 56.2597 122.161 55.907C122.621 55.5543 122.851 55.1097 122.851 54.573C122.851 54.021 122.606 53.6147 122.115 53.354C121.625 53.078 120.866 52.8097 119.838 52.549C118.903 52.3037 118.136 52.0583 117.538 51.813C116.956 51.5523 116.45 51.1767 116.02 50.686C115.606 50.18 115.399 49.5207 115.399 48.708C115.399 48.064 115.591 47.4737 115.974 46.937C116.358 46.4003 116.902 45.9787 117.607 45.672C118.313 45.35 119.118 45.189 120.022 45.189C121.418 45.189 122.545 45.5417 123.403 46.247C124.262 46.9523 124.722 47.9183 124.783 49.145H122.69C122.644 48.4857 122.376 47.9567 121.885 47.558C121.41 47.1593 120.766 46.96 119.953 46.96C119.202 46.96 118.604 47.121 118.159 47.443C117.715 47.765 117.492 48.1867 117.492 48.708C117.492 49.122 117.623 49.467 117.883 49.743C118.159 50.0037 118.497 50.2183 118.895 50.387C119.309 50.5403 119.877 50.7167 120.597 50.916C121.502 51.1613 122.238 51.4067 122.805 51.652C123.373 51.882 123.856 52.2347 124.254 52.71C124.668 53.1853 124.883 53.8063 124.898 54.573C124.898 55.263 124.707 55.884 124.323 56.436C123.94 56.988 123.396 57.425 122.69 57.747C122 58.0537 121.203 58.207 120.298 58.207ZM142.531 45.396V58H140.438V56.137C140.039 56.781 139.48 57.287 138.759 57.655C138.054 58.0077 137.272 58.184 136.413 58.184C135.432 58.184 134.55 57.9847 133.768 57.586C132.986 57.172 132.365 56.5587 131.905 55.746C131.46 54.9333 131.238 53.9443 131.238 52.779V45.396H133.308V52.503C133.308 53.745 133.622 54.7033 134.251 55.378C134.88 56.0373 135.738 56.367 136.827 56.367C137.946 56.367 138.828 56.022 139.472 55.332C140.116 54.642 140.438 53.6377 140.438 52.319V45.396H142.531ZM151.658 47.443C152.026 46.7223 152.547 46.1627 153.222 45.764C153.912 45.3653 154.748 45.166 155.729 45.166V47.328H155.177C152.831 47.328 151.658 48.6007 151.658 51.146V58H149.565V45.396H151.658V47.443ZM173.145 51.215C173.145 51.6137 173.122 52.0353 173.076 52.48H163.002C163.079 53.722 163.5 54.6957 164.267 55.401C165.049 56.091 165.992 56.436 167.096 56.436C168.001 56.436 168.752 56.229 169.35 55.815C169.963 55.3857 170.393 54.8183 170.638 54.113H172.892C172.555 55.3243 171.88 56.3133 170.868 57.08C169.856 57.8313 168.599 58.207 167.096 58.207C165.9 58.207 164.827 57.9387 163.876 57.402C162.941 56.8653 162.205 56.1063 161.668 55.125C161.131 54.1283 160.863 52.9783 160.863 51.675C160.863 50.3717 161.124 49.2293 161.645 48.248C162.166 47.2667 162.895 46.5153 163.83 45.994C164.781 45.4573 165.869 45.189 167.096 45.189C168.292 45.189 169.35 45.4497 170.27 45.971C171.19 46.4923 171.895 47.213 172.386 48.133C172.892 49.0377 173.145 50.065 173.145 51.215ZM170.983 50.778C170.983 49.9807 170.807 49.2983 170.454 48.731C170.101 48.1483 169.618 47.7113 169.005 47.42C168.407 47.1133 167.74 46.96 167.004 46.96C165.946 46.96 165.041 47.2973 164.29 47.972C163.554 48.6467 163.132 49.582 163.025 50.778H170.983ZM191.593 47.121V54.55C191.593 55.1633 191.723 55.6003 191.984 55.861C192.244 56.1063 192.697 56.229 193.341 56.229H194.882V58H192.996C191.83 58 190.956 57.7317 190.374 57.195C189.791 56.6583 189.5 55.7767 189.5 54.55V47.121H187.867V45.396H189.5V42.222H191.593V45.396H194.882V47.121H191.593ZM207.173 45.166C208.124 45.166 208.983 45.373 209.749 45.787C210.516 46.1857 211.114 46.7913 211.543 47.604C211.988 48.4167 212.21 49.4057 212.21 50.571V58H210.14V50.87C210.14 49.6127 209.826 48.6543 209.197 47.995C208.569 47.3203 207.71 46.983 206.621 46.983C205.517 46.983 204.636 47.328 203.976 48.018C203.332 48.708 203.01 49.7123 203.01 51.031V58H200.917V40.98H203.01V47.19C203.424 46.546 203.992 46.0477 204.712 45.695C205.448 45.3423 206.269 45.166 207.173 45.166ZM230.629 51.215C230.629 51.6137 230.606 52.0353 230.56 52.48H220.486C220.563 53.722 220.985 54.6957 221.751 55.401C222.533 56.091 223.476 56.436 224.58 56.436C225.485 56.436 226.236 56.229 226.834 55.815C227.448 55.3857 227.877 54.8183 228.122 54.113H230.376C230.039 55.3243 229.364 56.3133 228.352 57.08C227.34 57.8313 226.083 58.207 224.58 58.207C223.384 58.207 222.311 57.9387 221.36 57.402C220.425 56.8653 219.689 56.1063 219.152 55.125C218.616 54.1283 218.347 52.9783 218.347 51.675C218.347 50.3717 218.608 49.2293 219.129 48.248C219.651 47.2667 220.379 46.5153 221.314 45.994C222.265 45.4573 223.354 45.189 224.58 45.189C225.776 45.189 226.834 45.4497 227.754 45.971C228.674 46.4923 229.38 47.213 229.87 48.133C230.376 49.0377 230.629 50.065 230.629 51.215ZM228.467 50.778C228.467 49.9807 228.291 49.2983 227.938 48.731C227.586 48.1483 227.103 47.7113 226.489 47.42C225.891 47.1133 225.224 46.96 224.488 46.96C223.43 46.96 222.526 47.2973 221.774 47.972C221.038 48.6467 220.617 49.582 220.509 50.778H228.467ZM248.617 47.719C249.031 46.9983 249.644 46.4003 250.457 45.925C251.285 45.4343 252.243 45.189 253.332 45.189C254.451 45.189 255.463 45.4573 256.368 45.994C257.288 46.5307 258.009 47.2897 258.53 48.271C259.051 49.237 259.312 50.364 259.312 51.652C259.312 52.9247 259.051 54.0593 258.53 55.056C258.009 56.0527 257.288 56.827 256.368 57.379C255.463 57.931 254.451 58.207 253.332 58.207C252.259 58.207 251.308 57.9693 250.48 57.494C249.667 57.0033 249.046 56.3977 248.617 55.677V63.98H246.524V45.396H248.617V47.719ZM257.173 51.652C257.173 50.7013 256.981 49.8733 256.598 49.168C256.215 48.4627 255.693 47.926 255.034 47.558C254.39 47.19 253.677 47.006 252.895 47.006C252.128 47.006 251.415 47.1977 250.756 47.581C250.112 47.949 249.591 48.4933 249.192 49.214C248.809 49.9193 248.617 50.7397 248.617 51.675C248.617 52.6257 248.809 53.4613 249.192 54.182C249.591 54.8873 250.112 55.4317 250.756 55.815C251.415 56.183 252.128 56.367 252.895 56.367C253.677 56.367 254.39 56.183 255.034 55.815C255.693 55.4317 256.215 54.8873 256.598 54.182C256.981 53.4613 257.173 52.618 257.173 51.652ZM267.66 47.443C268.028 46.7223 268.549 46.1627 269.224 45.764C269.914 45.3653 270.75 45.166 271.731 45.166V47.328H271.179C268.833 47.328 267.66 48.6007 267.66 51.146V58H265.567V45.396H267.66V47.443ZM283.144 58.207C281.963 58.207 280.89 57.9387 279.924 57.402C278.973 56.8653 278.222 56.1063 277.67 55.125C277.133 54.1283 276.865 52.9783 276.865 51.675C276.865 50.387 277.141 49.2523 277.693 48.271C278.26 47.2743 279.027 46.5153 279.993 45.994C280.959 45.4573 282.04 45.189 283.236 45.189C284.432 45.189 285.513 45.4573 286.479 45.994C287.445 46.5153 288.204 47.2667 288.756 48.248C289.323 49.2293 289.607 50.3717 289.607 51.675C289.607 52.9783 289.316 54.1283 288.733 55.125C288.166 56.1063 287.391 56.8653 286.41 57.402C285.429 57.9387 284.34 58.207 283.144 58.207ZM283.144 56.367C283.895 56.367 284.601 56.1907 285.26 55.838C285.919 55.4853 286.448 54.9563 286.847 54.251C287.261 53.5457 287.468 52.687 287.468 51.675C287.468 50.663 287.269 49.8043 286.87 49.099C286.471 48.3937 285.95 47.8723 285.306 47.535C284.662 47.1823 283.964 47.006 283.213 47.006C282.446 47.006 281.741 47.1823 281.097 47.535C280.468 47.8723 279.962 48.3937 279.579 49.099C279.196 49.8043 279.004 50.663 279.004 51.675C279.004 52.7023 279.188 53.5687 279.556 54.274C279.939 54.9793 280.445 55.5083 281.074 55.861C281.703 56.1983 282.393 56.367 283.144 56.367ZM295.077 51.652C295.077 50.364 295.338 49.237 295.859 48.271C296.38 47.2897 297.093 46.5307 297.998 45.994C298.918 45.4573 299.945 45.189 301.08 45.189C302.061 45.189 302.974 45.419 303.817 45.879C304.66 46.3237 305.304 46.914 305.749 47.65V40.98H307.865V58H305.749V55.631C305.335 56.3823 304.722 57.0033 303.909 57.494C303.096 57.9693 302.146 58.207 301.057 58.207C299.938 58.207 298.918 57.931 297.998 57.379C297.093 56.827 296.38 56.0527 295.859 55.056C295.338 54.0593 295.077 52.9247 295.077 51.652ZM305.749 51.675C305.749 50.7243 305.557 49.8963 305.174 49.191C304.791 48.4857 304.269 47.949 303.61 47.581C302.966 47.1977 302.253 47.006 301.471 47.006C300.689 47.006 299.976 47.19 299.332 47.558C298.688 47.926 298.174 48.4627 297.791 49.168C297.408 49.8733 297.216 50.7013 297.216 51.652C297.216 52.618 297.408 53.4613 297.791 54.182C298.174 54.8873 298.688 55.4317 299.332 55.815C299.976 56.183 300.689 56.367 301.471 56.367C302.253 56.367 302.966 56.183 303.61 55.815C304.269 55.4317 304.791 54.8873 305.174 54.182C305.557 53.4613 305.749 52.6257 305.749 51.675ZM326.08 45.396V58H323.987V56.137C323.588 56.781 323.029 57.287 322.308 57.655C321.603 58.0077 320.821 58.184 319.962 58.184C318.981 58.184 318.099 57.9847 317.317 57.586C316.535 57.172 315.914 56.5587 315.454 55.746C315.009 54.9333 314.787 53.9443 314.787 52.779V45.396H316.857V52.503C316.857 53.745 317.171 54.7033 317.8 55.378C318.429 56.0373 319.287 56.367 320.376 56.367C321.495 56.367 322.377 56.022 323.021 55.332C323.665 54.642 323.987 53.6377 323.987 52.319V45.396H326.08ZM332.332 51.675C332.332 50.3717 332.592 49.237 333.114 48.271C333.635 47.2897 334.356 46.5307 335.276 45.994C336.211 45.4573 337.277 45.189 338.473 45.189C340.021 45.189 341.294 45.5647 342.291 46.316C343.303 47.0673 343.97 48.11 344.292 49.444H342.038C341.823 48.6773 341.401 48.0717 340.773 47.627C340.159 47.1823 339.393 46.96 338.473 46.96C337.277 46.96 336.311 47.374 335.575 48.202C334.839 49.0147 334.471 50.1723 334.471 51.675C334.471 53.193 334.839 54.366 335.575 55.194C336.311 56.022 337.277 56.436 338.473 56.436C339.393 56.436 340.159 56.2213 340.773 55.792C341.386 55.3627 341.808 54.7493 342.038 53.952H344.292C343.954 55.24 343.28 56.275 342.268 57.057C341.256 57.8237 339.991 58.207 338.473 58.207C337.277 58.207 336.211 57.9387 335.276 57.402C334.356 56.8653 333.635 56.1063 333.114 55.125C332.592 54.1437 332.332 52.9937 332.332 51.675ZM353.137 47.121V54.55C353.137 55.1633 353.268 55.6003 353.528 55.861C353.789 56.1063 354.241 56.229 354.885 56.229H356.426V58H354.54C353.375 58 352.501 57.7317 351.918 57.195C351.336 56.6583 351.044 55.7767 351.044 54.55V47.121H349.411V45.396H351.044V42.222H353.137V45.396H356.426V47.121H353.137ZM373.175 43.349C372.777 43.349 372.439 43.211 372.163 42.935C371.887 42.659 371.749 42.3217 371.749 41.923C371.749 41.5243 371.887 41.187 372.163 40.911C372.439 40.635 372.777 40.497 373.175 40.497C373.559 40.497 373.881 40.635 374.141 40.911C374.417 41.187 374.555 41.5243 374.555 41.923C374.555 42.3217 374.417 42.659 374.141 42.935C373.881 43.211 373.559 43.349 373.175 43.349ZM374.187 45.396V58H372.094V45.396H374.187ZM385.716 58.207C384.75 58.207 383.884 58.046 383.117 57.724C382.351 57.3867 381.745 56.9267 381.3 56.344C380.856 55.746 380.61 55.0637 380.564 54.297H382.726C382.788 54.9257 383.079 55.4393 383.6 55.838C384.137 56.2367 384.835 56.436 385.693 56.436C386.491 56.436 387.119 56.2597 387.579 55.907C388.039 55.5543 388.269 55.1097 388.269 54.573C388.269 54.021 388.024 53.6147 387.533 53.354C387.043 53.078 386.284 52.8097 385.256 52.549C384.321 52.3037 383.554 52.0583 382.956 51.813C382.374 51.5523 381.868 51.1767 381.438 50.686C381.024 50.18 380.817 49.5207 380.817 48.708C380.817 48.064 381.009 47.4737 381.392 46.937C381.776 46.4003 382.32 45.9787 383.025 45.672C383.731 45.35 384.536 45.189 385.44 45.189C386.836 45.189 387.963 45.5417 388.821 46.247C389.68 46.9523 390.14 47.9183 390.201 49.145H388.108C388.062 48.4857 387.794 47.9567 387.303 47.558C386.828 47.1593 386.184 46.96 385.371 46.96C384.62 46.96 384.022 47.121 383.577 47.443C383.133 47.765 382.91 48.1867 382.91 48.708C382.91 49.122 383.041 49.467 383.301 49.743C383.577 50.0037 383.915 50.2183 384.313 50.387C384.727 50.5403 385.295 50.7167 386.015 50.916C386.92 51.1613 387.656 51.4067 388.223 51.652C388.791 51.882 389.274 52.2347 389.672 52.71C390.086 53.1853 390.301 53.8063 390.316 54.573C390.316 55.263 390.125 55.884 389.741 56.436C389.358 56.988 388.814 57.425 388.108 57.747C387.418 58.0537 386.621 58.207 385.716 58.207Z" fill="black"/>
<path d="M944.762 41.969C946.51 41.969 948.02 42.2987 949.293 42.958C950.581 43.602 951.562 44.5297 952.237 45.741C952.927 46.9523 953.272 48.3783 953.272 50.019C953.272 51.6597 952.927 53.0857 952.237 54.297C951.562 55.493 950.581 56.413 949.293 57.057C948.02 57.6857 946.51 58 944.762 58H939.771V41.969H944.762ZM944.762 56.275C946.832 56.275 948.411 55.7307 949.5 54.642C950.589 53.538 951.133 51.997 951.133 50.019C951.133 48.0257 950.581 46.4693 949.477 45.35C948.388 44.2307 946.817 43.671 944.762 43.671H941.864V56.275H944.762ZM971.033 51.215C971.033 51.6137 971.01 52.0353 970.964 52.48H960.89C960.966 53.722 961.388 54.6957 962.155 55.401C962.937 56.091 963.88 56.436 964.984 56.436C965.888 56.436 966.64 56.229 967.238 55.815C967.851 55.3857 968.28 54.8183 968.526 54.113H970.78C970.442 55.3243 969.768 56.3133 968.756 57.08C967.744 57.8313 966.486 58.207 964.984 58.207C963.788 58.207 962.714 57.9387 961.764 57.402C960.828 56.8653 960.092 56.1063 959.556 55.125C959.019 54.1283 958.751 52.9783 958.751 51.675C958.751 50.3717 959.011 49.2293 959.533 48.248C960.054 47.2667 960.782 46.5153 961.718 45.994C962.668 45.4573 963.757 45.189 964.984 45.189C966.18 45.189 967.238 45.4497 968.158 45.971C969.078 46.4923 969.783 47.213 970.274 48.133C970.78 49.0377 971.033 50.065 971.033 51.215ZM968.871 50.778C968.871 49.9807 968.694 49.2983 968.342 48.731C967.989 48.1483 967.506 47.7113 966.893 47.42C966.295 47.1133 965.628 46.96 964.892 46.96C963.834 46.96 962.929 47.2973 962.178 47.972C961.442 48.6467 961.02 49.582 960.913 50.778H968.871ZM981.757 58.207C980.791 58.207 979.925 58.046 979.158 57.724C978.392 57.3867 977.786 56.9267 977.341 56.344C976.897 55.746 976.651 55.0637 976.605 54.297H978.767C978.829 54.9257 979.12 55.4393 979.641 55.838C980.178 56.2367 980.876 56.436 981.734 56.436C982.532 56.436 983.16 56.2597 983.62 55.907C984.08 55.5543 984.31 55.1097 984.31 54.573C984.31 54.021 984.065 53.6147 983.574 53.354C983.084 53.078 982.325 52.8097 981.297 52.549C980.362 52.3037 979.595 52.0583 978.997 51.813C978.415 51.5523 977.909 51.1767 977.479 50.686C977.065 50.18 976.858 49.5207 976.858 48.708C976.858 48.064 977.05 47.4737 977.433 46.937C977.817 46.4003 978.361 45.9787 979.066 45.672C979.772 45.35 980.577 45.189 981.481 45.189C982.877 45.189 984.004 45.5417 984.862 46.247C985.721 46.9523 986.181 47.9183 986.242 49.145H984.149C984.103 48.4857 983.835 47.9567 983.344 47.558C982.869 47.1593 982.225 46.96 981.412 46.96C980.661 46.96 980.063 47.121 979.618 47.443C979.174 47.765 978.951 48.1867 978.951 48.708C978.951 49.122 979.082 49.467 979.342 49.743C979.618 50.0037 979.956 50.2183 980.354 50.387C980.768 50.5403 981.336 50.7167 982.056 50.916C982.961 51.1613 983.697 51.4067 984.264 51.652C984.832 51.882 985.315 52.2347 985.713 52.71C986.127 53.1853 986.342 53.8063 986.357 54.573C986.357 55.263 986.166 55.884 985.782 56.436C985.399 56.988 984.855 57.425 984.149 57.747C983.459 58.0537 982.662 58.207 981.757 58.207ZM993.893 43.349C993.494 43.349 993.157 43.211 992.881 42.935C992.605 42.659 992.467 42.3217 992.467 41.923C992.467 41.5243 992.605 41.187 992.881 40.911C993.157 40.635 993.494 40.497 993.893 40.497C994.276 40.497 994.598 40.635 994.859 40.911C995.135 41.187 995.273 41.5243 995.273 41.923C995.273 42.3217 995.135 42.659 994.859 42.935C994.598 43.211 994.276 43.349 993.893 43.349ZM994.905 45.396V58H992.812V45.396H994.905ZM1007.17 45.189C1008.26 45.189 1009.21 45.4267 1010.02 45.902C1010.85 46.3773 1011.46 46.9753 1011.86 47.696V45.396H1013.98V58.276C1013.98 59.426 1013.73 60.4457 1013.24 61.335C1012.75 62.2397 1012.05 62.945 1011.13 63.451C1010.22 63.957 1009.16 64.21 1007.95 64.21C1006.3 64.21 1004.92 63.819 1003.81 63.037C1002.71 62.255 1002.06 61.1893 1001.86 59.84H1003.93C1004.16 60.6067 1004.63 61.22 1005.35 61.68C1006.07 62.1553 1006.94 62.393 1007.95 62.393C1009.1 62.393 1010.04 62.0327 1010.76 61.312C1011.49 60.5913 1011.86 59.5793 1011.86 58.276V55.631C1011.45 56.367 1010.83 56.9803 1010.02 57.471C1009.21 57.9617 1008.26 58.207 1007.17 58.207C1006.05 58.207 1005.03 57.931 1004.11 57.379C1003.21 56.827 1002.49 56.0527 1001.97 55.056C1001.45 54.0593 1001.19 52.9247 1001.19 51.652C1001.19 50.364 1001.45 49.237 1001.97 48.271C1002.49 47.2897 1003.21 46.5307 1004.11 45.994C1005.03 45.4573 1006.05 45.189 1007.17 45.189ZM1011.86 51.675C1011.86 50.7243 1011.67 49.8963 1011.29 49.191C1010.9 48.4857 1010.38 47.949 1009.72 47.581C1009.08 47.1977 1008.37 47.006 1007.58 47.006C1006.8 47.006 1006.09 47.19 1005.45 47.558C1004.8 47.926 1004.29 48.4627 1003.9 49.168C1003.52 49.8733 1003.33 50.7013 1003.33 51.652C1003.33 52.618 1003.52 53.4613 1003.9 54.182C1004.29 54.8873 1004.8 55.4317 1005.45 55.815C1006.09 56.183 1006.8 56.367 1007.58 56.367C1008.37 56.367 1009.08 56.183 1009.72 55.815C1010.38 55.4317 1010.9 54.8873 1011.29 54.182C1011.67 53.4613 1011.86 52.6257 1011.86 51.675ZM1027.16 45.166C1028.69 45.166 1029.93 45.6337 1030.88 46.569C1031.83 47.489 1032.31 48.823 1032.31 50.571V58H1030.24V50.87C1030.24 49.6127 1029.92 48.6543 1029.3 47.995C1028.67 47.3203 1027.81 46.983 1026.72 46.983C1025.62 46.983 1024.73 47.328 1024.07 48.018C1023.43 48.708 1023.11 49.7123 1023.11 51.031V58H1021.02V45.396H1023.11V47.19C1023.52 46.546 1024.08 46.0477 1024.79 45.695C1025.51 45.3423 1026.3 45.166 1027.16 45.166ZM1041.39 55.102L1038.81 61.289H1037.41L1039.09 55.102H1041.39Z" fill="black"/>
<path opacity="0.65" d="M178.389 82.121V89.55C178.389 90.1633 178.52 90.6003 178.78 90.861C179.041 91.1063 179.493 91.229 180.137 91.229H181.678V93H179.792C178.627 93 177.753 92.7317 177.17 92.195C176.588 91.6583 176.296 90.7767 176.296 89.55V82.121H174.663V80.396H176.296V77.222H178.389V80.396H181.678V82.121H178.389ZM193.97 80.166C194.921 80.166 195.78 80.373 196.546 80.787C197.313 81.1857 197.911 81.7913 198.34 82.604C198.785 83.4167 199.007 84.4057 199.007 85.571V93H196.937V85.87C196.937 84.6127 196.623 83.6543 195.994 82.995C195.366 82.3203 194.507 81.983 193.418 81.983C192.314 81.983 191.433 82.328 190.773 83.018C190.129 83.708 189.807 84.7123 189.807 86.031V93H187.714V75.98H189.807V82.19C190.221 81.546 190.789 81.0477 191.509 80.695C192.245 80.3423 193.066 80.166 193.97 80.166ZM205.144 86.652C205.144 85.364 205.405 84.237 205.926 83.271C206.448 82.2897 207.161 81.5307 208.065 80.994C208.985 80.4573 210.005 80.189 211.124 80.189C212.228 80.189 213.187 80.4267 213.999 80.902C214.812 81.3773 215.418 81.9753 215.816 82.696V80.396H217.932V93H215.816V90.654C215.402 91.39 214.781 92.0033 213.953 92.494C213.141 92.9693 212.19 93.207 211.101 93.207C209.982 93.207 208.97 92.931 208.065 92.379C207.161 91.827 206.448 91.0527 205.926 90.056C205.405 89.0593 205.144 87.9247 205.144 86.652ZM215.816 86.675C215.816 85.7243 215.625 84.8963 215.241 84.191C214.858 83.4857 214.337 82.949 213.677 82.581C213.033 82.1977 212.32 82.006 211.538 82.006C210.756 82.006 210.043 82.19 209.399 82.558C208.755 82.926 208.242 83.4627 207.858 84.168C207.475 84.8733 207.283 85.7013 207.283 86.652C207.283 87.618 207.475 88.4613 207.858 89.182C208.242 89.8873 208.755 90.4317 209.399 90.815C210.043 91.183 210.756 91.367 211.538 91.367C212.32 91.367 213.033 91.183 213.677 90.815C214.337 90.4317 214.858 89.8873 215.241 89.182C215.625 88.4613 215.816 87.6257 215.816 86.675ZM227.522 82.121V89.55C227.522 90.1633 227.653 90.6003 227.913 90.861C228.174 91.1063 228.626 91.229 229.27 91.229H230.811V93H228.925C227.76 93 226.886 92.7317 226.303 92.195C225.721 91.6583 225.429 90.7767 225.429 89.55V82.121H223.796V80.396H225.429V77.222H227.522V80.396H230.811V82.121H227.522ZM248.572 82.443C248.94 81.7223 249.461 81.1627 250.136 80.764C250.826 80.3653 251.662 80.166 252.643 80.166V82.328H252.091C249.745 82.328 248.572 83.6007 248.572 86.146V93H246.479V80.396H248.572V82.443ZM270.059 86.215C270.059 86.6137 270.036 87.0353 269.99 87.48H259.916C259.993 88.722 260.414 89.6957 261.181 90.401C261.963 91.091 262.906 91.436 264.01 91.436C264.915 91.436 265.666 91.229 266.264 90.815C266.877 90.3857 267.307 89.8183 267.552 89.113H269.806C269.469 90.3243 268.794 91.3133 267.782 92.08C266.77 92.8313 265.513 93.207 264.01 93.207C262.814 93.207 261.741 92.9387 260.79 92.402C259.855 91.8653 259.119 91.1063 258.582 90.125C258.045 89.1283 257.777 87.9783 257.777 86.675C257.777 85.3717 258.038 84.2293 258.559 83.248C259.08 82.2667 259.809 81.5153 260.744 80.994C261.695 80.4573 262.783 80.189 264.01 80.189C265.206 80.189 266.264 80.4497 267.184 80.971C268.104 81.4923 268.809 82.213 269.3 83.133C269.806 84.0377 270.059 85.065 270.059 86.215ZM267.897 85.778C267.897 84.9807 267.721 84.2983 267.368 83.731C267.015 83.1483 266.532 82.7113 265.919 82.42C265.321 82.1133 264.654 81.96 263.918 81.96C262.86 81.96 261.955 82.2973 261.204 82.972C260.468 83.6467 260.046 84.582 259.939 85.778H267.897ZM275.54 86.652C275.54 85.364 275.8 84.237 276.322 83.271C276.843 82.2897 277.556 81.5307 278.461 80.994C279.381 80.4573 280.408 80.189 281.543 80.189C282.631 80.189 283.582 80.4343 284.395 80.925C285.223 81.4003 285.828 81.9907 286.212 82.696V80.396H288.328V98.98H286.212V90.677C285.813 91.3823 285.2 91.9803 284.372 92.471C283.544 92.9617 282.578 93.207 281.474 93.207C280.37 93.207 279.365 92.931 278.461 92.379C277.556 91.827 276.843 91.0527 276.322 90.056C275.8 89.0593 275.54 87.9247 275.54 86.652ZM286.212 86.675C286.212 85.7243 286.02 84.8963 285.637 84.191C285.253 83.4857 284.732 82.949 284.073 82.581C283.429 82.1977 282.716 82.006 281.934 82.006C281.152 82.006 280.439 82.19 279.795 82.558C279.151 82.926 278.637 83.4627 278.254 84.168C277.87 84.8733 277.679 85.7013 277.679 86.652C277.679 87.618 277.87 88.4613 278.254 89.182C278.637 89.8873 279.151 90.4317 279.795 90.815C280.439 91.183 281.152 91.367 281.934 91.367C282.716 91.367 283.429 91.183 284.073 90.815C284.732 90.4317 285.253 89.8873 285.637 89.182C286.02 88.4613 286.212 87.6257 286.212 86.675ZM306.543 80.396V93H304.45V91.137C304.051 91.781 303.491 92.287 302.771 92.655C302.065 93.0077 301.283 93.184 300.425 93.184C299.443 93.184 298.562 92.9847 297.78 92.586C296.998 92.172 296.377 91.5587 295.917 90.746C295.472 89.9333 295.25 88.9443 295.25 87.779V80.396H297.32V87.503C297.32 88.745 297.634 89.7033 298.263 90.378C298.891 91.0373 299.75 91.367 300.839 91.367C301.958 91.367 302.84 91.022 303.484 90.332C304.128 89.642 304.45 88.6377 304.45 87.319V80.396H306.543ZM314.658 78.349C314.259 78.349 313.922 78.211 313.646 77.935C313.37 77.659 313.232 77.3217 313.232 76.923C313.232 76.5243 313.37 76.187 313.646 75.911C313.922 75.635 314.259 75.497 314.658 75.497C315.041 75.497 315.363 75.635 315.624 75.911C315.9 76.187 316.038 76.5243 316.038 76.923C316.038 77.3217 315.9 77.659 315.624 77.935C315.363 78.211 315.041 78.349 314.658 78.349ZM315.67 80.396V93H313.577V80.396H315.67ZM324.83 82.443C325.198 81.7223 325.719 81.1627 326.394 80.764C327.084 80.3653 327.919 80.166 328.901 80.166V82.328H328.349C326.003 82.328 324.83 83.6007 324.83 86.146V93H322.737V80.396H324.83V82.443ZM346.317 86.215C346.317 86.6137 346.294 87.0353 346.248 87.48H336.174C336.251 88.722 336.672 89.6957 337.439 90.401C338.221 91.091 339.164 91.436 340.268 91.436C341.173 91.436 341.924 91.229 342.522 90.815C343.135 90.3857 343.565 89.8183 343.81 89.113H346.064C345.727 90.3243 345.052 91.3133 344.04 92.08C343.028 92.8313 341.771 93.207 340.268 93.207C339.072 93.207 337.999 92.9387 337.048 92.402C336.113 91.8653 335.377 91.1063 334.84 90.125C334.303 89.1283 334.035 87.9783 334.035 86.675C334.035 85.3717 334.296 84.2293 334.817 83.248C335.338 82.2667 336.067 81.5153 337.002 80.994C337.953 80.4573 339.041 80.189 340.268 80.189C341.464 80.189 342.522 80.4497 343.442 80.971C344.362 81.4923 345.067 82.213 345.558 83.133C346.064 84.0377 346.317 85.065 346.317 86.215ZM344.155 85.778C344.155 84.9807 343.979 84.2983 343.626 83.731C343.273 83.1483 342.79 82.7113 342.177 82.42C341.579 82.1133 340.912 81.96 340.176 81.96C339.118 81.96 338.213 82.2973 337.462 82.972C336.726 83.6467 336.304 84.582 336.197 85.778H344.155ZM357.042 93.207C356.076 93.207 355.209 93.046 354.443 92.724C353.676 92.3867 353.07 91.9267 352.626 91.344C352.181 90.746 351.936 90.0637 351.89 89.297H354.052C354.113 89.9257 354.404 90.4393 354.926 90.838C355.462 91.2367 356.16 91.436 357.019 91.436C357.816 91.436 358.445 91.2597 358.905 90.907C359.365 90.5543 359.595 90.1097 359.595 89.573C359.595 89.021 359.349 88.6147 358.859 88.354C358.368 88.078 357.609 87.8097 356.582 87.549C355.646 87.3037 354.88 87.0583 354.282 86.813C353.699 86.5523 353.193 86.1767 352.764 85.686C352.35 85.18 352.143 84.5207 352.143 83.708C352.143 83.064 352.334 82.4737 352.718 81.937C353.101 81.4003 353.645 80.9787 354.351 80.672C355.056 80.35 355.861 80.189 356.766 80.189C358.161 80.189 359.288 80.5417 360.147 81.247C361.005 81.9523 361.465 82.9183 361.527 84.145H359.434C359.388 83.4857 359.119 82.9567 358.629 82.558C358.153 82.1593 357.509 81.96 356.697 81.96C355.945 81.96 355.347 82.121 354.903 82.443C354.458 82.765 354.236 83.1867 354.236 83.708C354.236 84.122 354.366 84.467 354.627 84.743C354.903 85.0037 355.24 85.2183 355.639 85.387C356.053 85.5403 356.62 85.7167 357.341 85.916C358.245 86.1613 358.981 86.4067 359.549 86.652C360.116 86.882 360.599 87.2347 360.998 87.71C361.412 88.1853 361.626 88.8063 361.642 89.573C361.642 90.263 361.45 90.884 361.067 91.436C360.683 91.988 360.139 92.425 359.434 92.747C358.744 93.0537 357.946 93.207 357.042 93.207ZM376.946 86.652C376.946 85.364 377.207 84.237 377.728 83.271C378.249 82.2897 378.962 81.5307 379.867 80.994C380.787 80.4573 381.807 80.189 382.926 80.189C384.03 80.189 384.988 80.4267 385.801 80.902C386.614 81.3773 387.219 81.9753 387.618 82.696V80.396H389.734V93H387.618V90.654C387.204 91.39 386.583 92.0033 385.755 92.494C384.942 92.9693 383.992 93.207 382.903 93.207C381.784 93.207 380.772 92.931 379.867 92.379C378.962 91.827 378.249 91.0527 377.728 90.056C377.207 89.0593 376.946 87.9247 376.946 86.652ZM387.618 86.675C387.618 85.7243 387.426 84.8963 387.043 84.191C386.66 83.4857 386.138 82.949 385.479 82.581C384.835 82.1977 384.122 82.006 383.34 82.006C382.558 82.006 381.845 82.19 381.201 82.558C380.557 82.926 380.043 83.4627 379.66 84.168C379.277 84.8733 379.085 85.7013 379.085 86.652C379.085 87.618 379.277 88.4613 379.66 89.182C380.043 89.8873 380.557 90.4317 381.201 90.815C381.845 91.183 382.558 91.367 383.34 91.367C384.122 91.367 384.835 91.183 385.479 90.815C386.138 90.4317 386.66 89.8873 387.043 89.182C387.426 88.4613 387.618 87.6257 387.618 86.675Z" fill="black"/>
<path opacity="0.4" d="M20.158 117.121V124.55C20.158 125.163 20.2883 125.6 20.549 125.861C20.8097 126.106 21.262 126.229 21.906 126.229H23.447V128H21.561C20.3957 128 19.5217 127.732 18.939 127.195C18.3563 126.658 18.065 125.777 18.065 124.55V117.121H16.432V115.396H18.065V112.222H20.158V115.396H23.447V117.121H20.158ZM34.9799 128.207C33.7992 128.207 32.7259 127.939 31.7599 127.402C30.8092 126.865 30.0579 126.106 29.5059 125.125C28.9692 124.128 28.7009 122.978 28.7009 121.675C28.7009 120.387 28.9769 119.252 29.5289 118.271C30.0962 117.274 30.8629 116.515 31.8289 115.994C32.7949 115.457 33.8759 115.189 35.0719 115.189C36.2679 115.189 37.3489 115.457 38.3149 115.994C39.2809 116.515 40.0399 117.267 40.5919 118.248C41.1592 119.229 41.4429 120.372 41.4429 121.675C41.4429 122.978 41.1516 124.128 40.5689 125.125C40.0016 126.106 39.2272 126.865 38.2459 127.402C37.2646 127.939 36.1759 128.207 34.9799 128.207ZM34.9799 126.367C35.7312 126.367 36.4366 126.191 37.0959 125.838C37.7552 125.485 38.2842 124.956 38.6829 124.251C39.0969 123.546 39.3039 122.687 39.3039 121.675C39.3039 120.663 39.1046 119.804 38.7059 119.099C38.3072 118.394 37.7859 117.872 37.1419 117.535C36.4979 117.182 35.8002 117.006 35.0489 117.006C34.2822 117.006 33.5769 117.182 32.9329 117.535C32.3042 117.872 31.7982 118.394 31.4149 119.099C31.0316 119.804 30.8399 120.663 30.8399 121.675C30.8399 122.702 31.0239 123.569 31.3919 124.274C31.7752 124.979 32.2812 125.508 32.9099 125.861C33.5386 126.198 34.2286 126.367 34.9799 126.367ZM62.4557 117.121H59.8107V128H57.7177V117.121H56.0847V115.396H57.7177V114.499C57.7177 113.088 58.078 112.061 58.7987 111.417C59.5347 110.758 60.7077 110.428 62.3177 110.428V112.176C61.3977 112.176 60.746 112.36 60.3627 112.728C59.9947 113.081 59.8107 113.671 59.8107 114.499V115.396H62.4557V117.121ZM79.574 115.396V128H77.481V126.137C77.0823 126.781 76.5227 127.287 75.802 127.655C75.0967 128.008 74.3147 128.184 73.456 128.184C72.4747 128.184 71.593 127.985 70.811 127.586C70.029 127.172 69.408 126.559 68.948 125.746C68.5033 124.933 68.281 123.944 68.281 122.779V115.396H70.351V122.503C70.351 123.745 70.6653 124.703 71.294 125.378C71.9227 126.037 72.7813 126.367 73.87 126.367C74.9893 126.367 75.871 126.022 76.515 125.332C77.159 124.642 77.481 123.638 77.481 122.319V115.396H79.574ZM88.7009 110.98V128H86.6079V110.98H88.7009ZM100.897 117.121H98.2521V128H96.1591V117.121H94.5261V115.396H96.1591V114.499C96.1591 113.088 96.5194 112.061 97.2401 111.417C97.9761 110.758 99.1491 110.428 100.759 110.428V112.176C99.8391 112.176 99.1874 112.36 98.8041 112.728C98.4361 113.081 98.2521 113.671 98.2521 114.499V115.396H100.897V117.121ZM107.918 113.349C107.52 113.349 107.182 113.211 106.906 112.935C106.63 112.659 106.492 112.322 106.492 111.923C106.492 111.524 106.63 111.187 106.906 110.911C107.182 110.635 107.52 110.497 107.918 110.497C108.302 110.497 108.624 110.635 108.884 110.911C109.16 111.187 109.298 111.524 109.298 111.923C109.298 112.322 109.16 112.659 108.884 112.935C108.624 113.211 108.302 113.349 107.918 113.349ZM108.93 115.396V128H106.837V115.396H108.93ZM118.091 110.98V128H115.998V110.98H118.091ZM127.251 110.98V128H125.158V110.98H127.251ZM138.78 128.207C137.814 128.207 136.948 128.046 136.181 127.724C135.414 127.387 134.809 126.927 134.364 126.344C133.919 125.746 133.674 125.064 133.628 124.297H135.79C135.851 124.926 136.143 125.439 136.664 125.838C137.201 126.237 137.898 126.436 138.757 126.436C139.554 126.436 140.183 126.26 140.643 125.907C141.103 125.554 141.333 125.11 141.333 124.573C141.333 124.021 141.088 123.615 140.597 123.354C140.106 123.078 139.347 122.81 138.32 122.549C137.385 122.304 136.618 122.058 136.02 121.813C135.437 121.552 134.931 121.177 134.502 120.686C134.088 120.18 133.881 119.521 133.881 118.708C133.881 118.064 134.073 117.474 134.456 116.937C134.839 116.4 135.384 115.979 136.089 115.672C136.794 115.35 137.599 115.189 138.504 115.189C139.899 115.189 141.026 115.542 141.885 116.247C142.744 116.952 143.204 117.918 143.265 119.145H141.172C141.126 118.486 140.858 117.957 140.367 117.558C139.892 117.159 139.248 116.96 138.435 116.96C137.684 116.96 137.086 117.121 136.641 117.443C136.196 117.765 135.974 118.187 135.974 118.708C135.974 119.122 136.104 119.467 136.365 119.743C136.641 120.004 136.978 120.218 137.377 120.387C137.791 120.54 138.358 120.717 139.079 120.916C139.984 121.161 140.72 121.407 141.287 121.652C141.854 121.882 142.337 122.235 142.736 122.71C143.15 123.185 143.365 123.806 143.38 124.573C143.38 125.263 143.188 125.884 142.805 126.436C142.422 126.988 141.877 127.425 141.172 127.747C140.482 128.054 139.685 128.207 138.78 128.207ZM160.547 113.349C160.149 113.349 159.811 113.211 159.535 112.935C159.259 112.659 159.121 112.322 159.121 111.923C159.121 111.524 159.259 111.187 159.535 110.911C159.811 110.635 160.149 110.497 160.547 110.497C160.931 110.497 161.253 110.635 161.513 110.911C161.789 111.187 161.927 111.524 161.927 111.923C161.927 112.322 161.789 112.659 161.513 112.935C161.253 113.211 160.931 113.349 160.547 113.349ZM161.559 115.396V128H159.466V115.396H161.559ZM171.179 117.121V124.55C171.179 125.163 171.31 125.6 171.57 125.861C171.831 126.106 172.283 126.229 172.927 126.229H174.468V128H172.582C171.417 128 170.543 127.732 169.96 127.195C169.378 126.658 169.086 125.777 169.086 124.55V117.121H167.453V115.396H169.086V112.222H171.179V115.396H174.468V117.121H171.179ZM184.966 128.207C184 128.207 183.134 128.046 182.367 127.724C181.601 127.387 180.995 126.927 180.55 126.344C180.106 125.746 179.86 125.064 179.814 124.297H181.976C182.038 124.926 182.329 125.439 182.85 125.838C183.387 126.237 184.085 126.436 184.943 126.436C185.741 126.436 186.369 126.26 186.829 125.907C187.289 125.554 187.519 125.11 187.519 124.573C187.519 124.021 187.274 123.615 186.783 123.354C186.293 123.078 185.534 122.81 184.506 122.549C183.571 122.304 182.804 122.058 182.206 121.813C181.624 121.552 181.118 121.177 180.688 120.686C180.274 120.18 180.067 119.521 180.067 118.708C180.067 118.064 180.259 117.474 180.642 116.937C181.026 116.4 181.57 115.979 182.275 115.672C182.981 115.35 183.786 115.189 184.69 115.189C186.086 115.189 187.213 115.542 188.071 116.247C188.93 116.952 189.39 117.918 189.451 119.145H187.358C187.312 118.486 187.044 117.957 186.553 117.558C186.078 117.159 185.434 116.96 184.621 116.96C183.87 116.96 183.272 117.121 182.827 117.443C182.383 117.765 182.16 118.187 182.16 118.708C182.16 119.122 182.291 119.467 182.551 119.743C182.827 120.004 183.165 120.218 183.563 120.387C183.977 120.54 184.545 120.717 185.265 120.916C186.17 121.161 186.906 121.407 187.473 121.652C188.041 121.882 188.524 122.235 188.922 122.71C189.336 123.185 189.551 123.806 189.566 124.573C189.566 125.263 189.375 125.884 188.991 126.436C188.608 126.988 188.064 127.425 187.358 127.747C186.668 128.054 185.871 128.207 184.966 128.207ZM207.746 117.719C208.16 116.998 208.773 116.4 209.586 115.925C210.414 115.434 211.372 115.189 212.461 115.189C213.58 115.189 214.592 115.457 215.497 115.994C216.417 116.531 217.138 117.29 217.659 118.271C218.18 119.237 218.441 120.364 218.441 121.652C218.441 122.925 218.18 124.059 217.659 125.056C217.138 126.053 216.417 126.827 215.497 127.379C214.592 127.931 213.58 128.207 212.461 128.207C211.388 128.207 210.437 127.969 209.609 127.494C208.796 127.003 208.175 126.398 207.746 125.677V133.98H205.653V115.396H207.746V117.719ZM216.302 121.652C216.302 120.701 216.11 119.873 215.727 119.168C215.344 118.463 214.822 117.926 214.163 117.558C213.519 117.19 212.806 117.006 212.024 117.006C211.257 117.006 210.544 117.198 209.885 117.581C209.241 117.949 208.72 118.493 208.321 119.214C207.938 119.919 207.746 120.74 207.746 121.675C207.746 122.626 207.938 123.461 208.321 124.182C208.72 124.887 209.241 125.432 209.885 125.815C210.544 126.183 211.257 126.367 212.024 126.367C212.806 126.367 213.519 126.183 214.163 125.815C214.822 125.432 215.344 124.887 215.727 124.182C216.11 123.461 216.302 122.618 216.302 121.652ZM235.874 115.396V128H233.781V126.137C233.382 126.781 232.822 127.287 232.102 127.655C231.396 128.008 230.614 128.184 229.756 128.184C228.774 128.184 227.893 127.985 227.111 127.586C226.329 127.172 225.708 126.559 225.248 125.746C224.803 124.933 224.581 123.944 224.581 122.779V115.396H226.651V122.503C226.651 123.745 226.965 124.703 227.594 125.378C228.222 126.037 229.081 126.367 230.17 126.367C231.289 126.367 232.171 126.022 232.815 125.332C233.459 124.642 233.781 123.638 233.781 122.319V115.396H235.874ZM245.001 117.443C245.369 116.722 245.89 116.163 246.565 115.764C247.255 115.365 248.09 115.166 249.072 115.166V117.328H248.52C246.174 117.328 245.001 118.601 245.001 121.146V128H242.908V115.396H245.001V117.443ZM257.081 117.719C257.495 116.998 258.108 116.4 258.921 115.925C259.749 115.434 260.707 115.189 261.796 115.189C262.915 115.189 263.927 115.457 264.832 115.994C265.752 116.531 266.472 117.29 266.994 118.271C267.515 119.237 267.776 120.364 267.776 121.652C267.776 122.925 267.515 124.059 266.994 125.056C266.472 126.053 265.752 126.827 264.832 127.379C263.927 127.931 262.915 128.207 261.796 128.207C260.722 128.207 259.772 127.969 258.944 127.494C258.131 127.003 257.51 126.398 257.081 125.677V133.98H254.988V115.396H257.081V117.719ZM265.637 121.652C265.637 120.701 265.445 119.873 265.062 119.168C264.678 118.463 264.157 117.926 263.498 117.558C262.854 117.19 262.141 117.006 261.359 117.006C260.592 117.006 259.879 117.198 259.22 117.581C258.576 117.949 258.054 118.493 257.656 119.214C257.272 119.919 257.081 120.74 257.081 121.675C257.081 122.626 257.272 123.461 257.656 124.182C258.054 124.887 258.576 125.432 259.22 125.815C259.879 126.183 260.592 126.367 261.359 126.367C262.141 126.367 262.854 126.183 263.498 125.815C264.157 125.432 264.678 124.887 265.062 124.182C265.445 123.461 265.637 122.618 265.637 121.652ZM279.528 128.207C278.347 128.207 277.274 127.939 276.308 127.402C275.357 126.865 274.606 126.106 274.054 125.125C273.517 124.128 273.249 122.978 273.249 121.675C273.249 120.387 273.525 119.252 274.077 118.271C274.644 117.274 275.411 116.515 276.377 115.994C277.343 115.457 278.424 115.189 279.62 115.189C280.816 115.189 281.897 115.457 282.863 115.994C283.829 116.515 284.588 117.267 285.14 118.248C285.707 119.229 285.991 120.372 285.991 121.675C285.991 122.978 285.699 124.128 285.117 125.125C284.549 126.106 283.775 126.865 282.794 127.402C281.812 127.939 280.724 128.207 279.528 128.207ZM279.528 126.367C280.279 126.367 280.984 126.191 281.644 125.838C282.303 125.485 282.832 124.956 283.231 124.251C283.645 123.546 283.852 122.687 283.852 121.675C283.852 120.663 283.652 119.804 283.254 119.099C282.855 118.394 282.334 117.872 281.69 117.535C281.046 117.182 280.348 117.006 279.597 117.006C278.83 117.006 278.125 117.182 277.481 117.535C276.852 117.872 276.346 118.394 275.963 119.099C275.579 119.804 275.388 120.663 275.388 121.675C275.388 122.702 275.572 123.569 275.94 124.274C276.323 124.979 276.829 125.508 277.458 125.861C278.086 126.198 278.776 126.367 279.528 126.367ZM296.705 128.207C295.739 128.207 294.872 128.046 294.106 127.724C293.339 127.387 292.733 126.927 292.289 126.344C291.844 125.746 291.599 125.064 291.553 124.297H293.715C293.776 124.926 294.067 125.439 294.589 125.838C295.125 126.237 295.823 126.436 296.682 126.436C297.479 126.436 298.108 126.26 298.568 125.907C299.028 125.554 299.258 125.11 299.258 124.573C299.258 124.021 299.012 123.615 298.522 123.354C298.031 123.078 297.272 122.81 296.245 122.549C295.309 122.304 294.543 122.058 293.945 121.813C293.362 121.552 292.856 121.177 292.427 120.686C292.013 120.18 291.806 119.521 291.806 118.708C291.806 118.064 291.997 117.474 292.381 116.937C292.764 116.4 293.308 115.979 294.014 115.672C294.719 115.35 295.524 115.189 296.429 115.189C297.824 115.189 298.951 115.542 299.81 116.247C300.668 116.952 301.128 117.918 301.19 119.145H299.097C299.051 118.486 298.782 117.957 298.292 117.558C297.816 117.159 297.172 116.96 296.36 116.96C295.608 116.96 295.01 117.121 294.566 117.443C294.121 117.765 293.899 118.187 293.899 118.708C293.899 119.122 294.029 119.467 294.29 119.743C294.566 120.004 294.903 120.218 295.302 120.387C295.716 120.54 296.283 120.717 297.004 120.916C297.908 121.161 298.644 121.407 299.212 121.652C299.779 121.882 300.262 122.235 300.661 122.71C301.075 123.185 301.289 123.806 301.305 124.573C301.305 125.263 301.113 125.884 300.73 126.436C300.346 126.988 299.802 127.425 299.097 127.747C298.407 128.054 297.609 128.207 296.705 128.207ZM319.259 121.215C319.259 121.614 319.236 122.035 319.19 122.48H309.116C309.193 123.722 309.615 124.696 310.381 125.401C311.163 126.091 312.106 126.436 313.21 126.436C314.115 126.436 314.866 126.229 315.464 125.815C316.078 125.386 316.507 124.818 316.752 124.113H319.006C318.669 125.324 317.994 126.313 316.982 127.08C315.97 127.831 314.713 128.207 313.21 128.207C312.014 128.207 310.941 127.939 309.99 127.402C309.055 126.865 308.319 126.106 307.782 125.125C307.246 124.128 306.977 122.978 306.977 121.675C306.977 120.372 307.238 119.229 307.759 118.248C308.281 117.267 309.009 116.515 309.944 115.994C310.895 115.457 311.984 115.189 313.21 115.189C314.406 115.189 315.464 115.45 316.384 115.971C317.304 116.492 318.01 117.213 318.5 118.133C319.006 119.038 319.259 120.065 319.259 121.215ZM317.097 120.778C317.097 119.981 316.921 119.298 316.568 118.731C316.216 118.148 315.733 117.711 315.119 117.42C314.521 117.113 313.854 116.96 313.118 116.96C312.06 116.96 311.156 117.297 310.404 117.972C309.668 118.647 309.247 119.582 309.139 120.778H317.097ZM351.944 115.396L348.011 128H345.849L342.813 117.995L339.777 128H337.615L333.659 115.396H335.798L338.696 125.976L341.824 115.396H343.963L347.022 125.999L349.874 115.396H351.944ZM358.602 113.349C358.203 113.349 357.866 113.211 357.59 112.935C357.314 112.659 357.176 112.322 357.176 111.923C357.176 111.524 357.314 111.187 357.59 110.911C357.866 110.635 358.203 110.497 358.602 110.497C358.985 110.497 359.307 110.635 359.568 110.911C359.844 111.187 359.982 111.524 359.982 111.923C359.982 112.322 359.844 112.659 359.568 112.935C359.307 113.211 358.985 113.349 358.602 113.349ZM359.614 115.396V128H357.521V115.396H359.614ZM369.234 117.121V124.55C369.234 125.163 369.364 125.6 369.625 125.861C369.886 126.106 370.338 126.229 370.982 126.229H372.523V128H370.637C369.472 128 368.598 127.732 368.015 127.195C367.432 126.658 367.141 125.777 367.141 124.55V117.121H365.508V115.396H367.141V112.222H369.234V115.396H372.523V117.121H369.234ZM384.815 115.166C385.766 115.166 386.624 115.373 387.391 115.787C388.158 116.186 388.756 116.791 389.185 117.604C389.63 118.417 389.852 119.406 389.852 120.571V128H387.782V120.87C387.782 119.613 387.468 118.654 386.839 117.995C386.21 117.32 385.352 116.983 384.263 116.983C383.159 116.983 382.277 117.328 381.618 118.018C380.974 118.708 380.652 119.712 380.652 121.031V128H378.559V110.98H380.652V117.19C381.066 116.546 381.633 116.048 382.354 115.695C383.09 115.342 383.91 115.166 384.815 115.166Z" fill="black"/>
<path opacity="0.65" d="M941.864 91.298H947.476V93H939.771V76.969H941.864V91.298ZM964.699 86.215C964.699 86.6137 964.676 87.0353 964.63 87.48H954.556C954.632 88.722 955.054 89.6957 955.821 90.401C956.603 91.091 957.546 91.436 958.65 91.436C959.554 91.436 960.306 91.229 960.904 90.815C961.517 90.3857 961.946 89.8183 962.192 89.113H964.446C964.108 90.3243 963.434 91.3133 962.422 92.08C961.41 92.8313 960.152 93.207 958.65 93.207C957.454 93.207 956.38 92.9387 955.43 92.402C954.494 91.8653 953.758 91.1063 953.222 90.125C952.685 89.1283 952.417 87.9783 952.417 86.675C952.417 85.3717 952.677 84.2293 953.199 83.248C953.72 82.2667 954.448 81.5153 955.384 80.994C956.334 80.4573 957.423 80.189 958.65 80.189C959.846 80.189 960.904 80.4497 961.824 80.971C962.744 81.4923 963.449 82.213 963.94 83.133C964.446 84.0377 964.699 85.065 964.699 86.215ZM962.537 85.778C962.537 84.9807 962.36 84.2983 962.008 83.731C961.655 83.1483 961.172 82.7113 960.559 82.42C959.961 82.1133 959.294 81.96 958.558 81.96C957.5 81.96 956.595 82.2973 955.844 82.972C955.108 83.6467 954.686 84.582 954.579 85.778H962.537ZM970.179 86.652C970.179 85.364 970.44 84.237 970.961 83.271C971.483 82.2897 972.196 81.5307 973.1 80.994C974.02 80.4573 975.04 80.189 976.159 80.189C977.263 80.189 978.222 80.4267 979.034 80.902C979.847 81.3773 980.453 81.9753 980.851 82.696V80.396H982.967V93H980.851V90.654C980.437 91.39 979.816 92.0033 978.988 92.494C978.176 92.9693 977.225 93.207 976.136 93.207C975.017 93.207 974.005 92.931 973.1 92.379C972.196 91.827 971.483 91.0527 970.961 90.056C970.44 89.0593 970.179 87.9247 970.179 86.652ZM980.851 86.675C980.851 85.7243 980.66 84.8963 980.276 84.191C979.893 83.4857 979.372 82.949 978.712 82.581C978.068 82.1977 977.355 82.006 976.573 82.006C975.791 82.006 975.078 82.19 974.434 82.558C973.79 82.926 973.277 83.4627 972.893 84.168C972.51 84.8733 972.318 85.7013 972.318 86.652C972.318 87.618 972.51 88.4613 972.893 89.182C973.277 89.8873 973.79 90.4317 974.434 90.815C975.078 91.183 975.791 91.367 976.573 91.367C977.355 91.367 978.068 91.183 978.712 90.815C979.372 90.4317 979.893 89.8873 980.276 89.182C980.66 88.4613 980.851 87.6257 980.851 86.675ZM992.097 82.443C992.465 81.7223 992.987 81.1627 993.661 80.764C994.351 80.3653 995.187 80.166 996.168 80.166V82.328H995.616C993.27 82.328 992.097 83.6007 992.097 86.146V93H990.004V80.396H992.097V82.443ZM1008.23 80.166C1009.76 80.166 1011 80.6337 1011.95 81.569C1012.9 82.489 1013.38 83.823 1013.38 85.571V93H1011.31V85.87C1011.31 84.6127 1010.99 83.6543 1010.36 82.995C1009.74 82.3203 1008.88 81.983 1007.79 81.983C1006.68 81.983 1005.8 82.328 1005.14 83.018C1004.5 83.708 1004.18 84.7123 1004.18 86.031V93H1002.08V80.396H1004.18V82.19C1004.59 81.546 1005.15 81.0477 1005.86 80.695C1006.58 80.3423 1007.37 80.166 1008.23 80.166ZM1021.38 78.349C1020.98 78.349 1020.64 78.211 1020.37 77.935C1020.09 77.659 1019.95 77.3217 1019.95 76.923C1019.95 76.5243 1020.09 76.187 1020.37 75.911C1020.64 75.635 1020.98 75.497 1021.38 75.497C1021.76 75.497 1022.08 75.635 1022.34 75.911C1022.62 76.187 1022.76 76.5243 1022.76 76.923C1022.76 77.3217 1022.62 77.659 1022.34 77.935C1022.08 78.211 1021.76 78.349 1021.38 78.349ZM1022.39 80.396V93H1020.3V80.396H1022.39ZM1035.6 80.166C1037.13 80.166 1038.37 80.6337 1039.32 81.569C1040.27 82.489 1040.75 83.823 1040.75 85.571V93H1038.68V85.87C1038.68 84.6127 1038.37 83.6543 1037.74 82.995C1037.11 82.3203 1036.25 81.983 1035.16 81.983C1034.06 81.983 1033.17 82.328 1032.52 83.018C1031.87 83.708 1031.55 84.7123 1031.55 86.031V93H1029.46V80.396H1031.55V82.19C1031.96 81.546 1032.52 81.0477 1033.23 80.695C1033.95 80.3423 1034.74 80.166 1035.6 80.166ZM1052.87 80.189C1053.96 80.189 1054.91 80.4267 1055.72 80.902C1056.55 81.3773 1057.16 81.9753 1057.56 82.696V80.396H1059.67V93.276C1059.67 94.426 1059.43 95.4457 1058.94 96.335C1058.45 97.2397 1057.74 97.945 1056.82 98.451C1055.92 98.957 1054.86 99.21 1053.65 99.21C1051.99 99.21 1050.61 98.819 1049.51 98.037C1048.4 97.255 1047.75 96.1893 1047.55 94.84H1049.62C1049.85 95.6067 1050.33 96.22 1051.05 96.68C1051.77 97.1553 1052.64 97.393 1053.65 97.393C1054.8 97.393 1055.73 97.0327 1056.45 96.312C1057.19 95.5913 1057.56 94.5793 1057.56 93.276V90.631C1057.14 91.367 1056.53 91.9803 1055.72 92.471C1054.91 92.9617 1053.96 93.207 1052.87 93.207C1051.75 93.207 1050.73 92.931 1049.81 92.379C1048.9 91.827 1048.19 91.0527 1047.67 90.056C1047.15 89.0593 1046.89 87.9247 1046.89 86.652C1046.89 85.364 1047.15 84.237 1047.67 83.271C1048.19 82.2897 1048.9 81.5307 1049.81 80.994C1050.73 80.4573 1051.75 80.189 1052.87 80.189ZM1057.56 86.675C1057.56 85.7243 1057.37 84.8963 1056.98 84.191C1056.6 83.4857 1056.08 82.949 1055.42 82.581C1054.78 82.1977 1054.06 82.006 1053.28 82.006C1052.5 82.006 1051.79 82.19 1051.14 82.558C1050.5 82.926 1049.98 83.4627 1049.6 84.168C1049.22 84.8733 1049.03 85.7013 1049.03 86.652C1049.03 87.618 1049.22 88.4613 1049.6 89.182C1049.98 89.8873 1050.5 90.4317 1051.14 90.815C1051.79 91.183 1052.5 91.367 1053.28 91.367C1054.06 91.367 1054.78 91.183 1055.42 90.815C1056.08 90.4317 1056.6 89.8873 1056.98 89.182C1057.37 88.4613 1057.56 87.6257 1057.56 86.675ZM1075.56 86.675C1075.56 85.3717 1075.82 84.237 1076.34 83.271C1076.86 82.2897 1077.59 81.5307 1078.51 80.994C1079.44 80.4573 1080.51 80.189 1081.7 80.189C1083.25 80.189 1084.52 80.5647 1085.52 81.316C1086.53 82.0673 1087.2 83.11 1087.52 84.444H1085.27C1085.05 83.6773 1084.63 83.0717 1084 82.627C1083.39 82.1823 1082.62 81.96 1081.7 81.96C1080.51 81.96 1079.54 82.374 1078.8 83.202C1078.07 84.0147 1077.7 85.1723 1077.7 86.675C1077.7 88.193 1078.07 89.366 1078.8 90.194C1079.54 91.022 1080.51 91.436 1081.7 91.436C1082.62 91.436 1083.39 91.2213 1084 90.792C1084.62 90.3627 1085.04 89.7493 1085.27 88.952H1087.52C1087.18 90.24 1086.51 91.275 1085.5 92.057C1084.49 92.8237 1083.22 93.207 1081.7 93.207C1080.51 93.207 1079.44 92.9387 1078.51 92.402C1077.59 91.8653 1076.86 91.1063 1076.34 90.125C1075.82 89.1437 1075.56 87.9937 1075.56 86.675ZM1104.99 80.396V93H1102.9V91.137C1102.5 91.781 1101.94 92.287 1101.22 92.655C1100.51 93.0077 1099.73 93.184 1098.87 93.184C1097.89 93.184 1097.01 92.9847 1096.23 92.586C1095.45 92.172 1094.83 91.5587 1094.37 90.746C1093.92 89.9333 1093.7 88.9443 1093.7 87.779V80.396H1095.77V87.503C1095.77 88.745 1096.08 89.7033 1096.71 90.378C1097.34 91.0373 1098.2 91.367 1099.29 91.367C1100.41 91.367 1101.29 91.022 1101.93 90.332C1102.58 89.642 1102.9 88.6377 1102.9 87.319V80.396H1104.99ZM1114.12 82.443C1114.49 81.7223 1115.01 81.1627 1115.68 80.764C1116.37 80.3653 1117.21 80.166 1118.19 80.166V82.328H1117.64C1115.29 82.328 1114.12 83.6007 1114.12 86.146V93H1112.03V80.396H1114.12V82.443ZM1128.8 91.068L1132.71 80.396H1134.94L1129.99 93H1127.56L1122.61 80.396H1124.86L1128.8 91.068ZM1152 86.215C1152 86.6137 1151.98 87.0353 1151.93 87.48H1141.86C1141.93 88.722 1142.35 89.6957 1143.12 90.401C1143.9 91.091 1144.85 91.436 1145.95 91.436C1146.85 91.436 1147.61 91.229 1148.2 90.815C1148.82 90.3857 1149.25 89.8183 1149.49 89.113H1151.75C1151.41 90.3243 1150.73 91.3133 1149.72 92.08C1148.71 92.8313 1147.45 93.207 1145.95 93.207C1144.75 93.207 1143.68 92.9387 1142.73 92.402C1141.79 91.8653 1141.06 91.1063 1140.52 90.125C1139.98 89.1283 1139.72 87.9783 1139.72 86.675C1139.72 85.3717 1139.98 84.2293 1140.5 83.248C1141.02 82.2667 1141.75 81.5153 1142.68 80.994C1143.63 80.4573 1144.72 80.189 1145.95 80.189C1147.15 80.189 1148.2 80.4497 1149.12 80.971C1150.04 81.4923 1150.75 82.213 1151.24 83.133C1151.75 84.0377 1152 85.065 1152 86.215ZM1149.84 85.778C1149.84 84.9807 1149.66 84.2983 1149.31 83.731C1148.95 83.1483 1148.47 82.7113 1147.86 82.42C1147.26 82.1133 1146.59 81.96 1145.86 81.96C1144.8 81.96 1143.89 82.2973 1143.14 82.972C1142.41 83.6467 1141.99 84.582 1141.88 85.778H1149.84ZM1160.42 90.102L1157.85 96.289H1156.44L1158.12 90.102H1160.42Z" fill="black"/>
<path opacity="0.4" d="M941.864 113.671V119.03H947.706V120.755H941.864V126.275H948.396V128H939.771V111.946H948.396V113.671H941.864ZM960.192 117.121H957.547V128H955.454V117.121H953.821V115.396H955.454V114.499C955.454 113.088 955.814 112.061 956.535 111.417C957.271 110.758 958.444 110.428 960.054 110.428V112.176C959.134 112.176 958.482 112.36 958.099 112.728C957.731 113.081 957.547 113.671 957.547 114.499V115.396H960.192V117.121ZM971.261 117.121H968.616V128H966.523V117.121H964.89V115.396H966.523V114.499C966.523 113.088 966.884 112.061 967.604 111.417C968.34 110.758 969.513 110.428 971.123 110.428V112.176C970.203 112.176 969.552 112.36 969.168 112.728C968.8 113.081 968.616 113.671 968.616 114.499V115.396H971.261V117.121ZM982.699 128.207C981.518 128.207 980.445 127.939 979.479 127.402C978.528 126.865 977.777 126.106 977.225 125.125C976.688 124.128 976.42 122.978 976.42 121.675C976.42 120.387 976.696 119.252 977.248 118.271C977.815 117.274 978.582 116.515 979.548 115.994C980.514 115.457 981.595 115.189 982.791 115.189C983.987 115.189 985.068 115.457 986.034 115.994C987 116.515 987.759 117.267 988.311 118.248C988.878 119.229 989.162 120.372 989.162 121.675C989.162 122.978 988.87 124.128 988.288 125.125C987.72 126.106 986.946 126.865 985.965 127.402C984.983 127.939 983.895 128.207 982.699 128.207ZM982.699 126.367C983.45 126.367 984.155 126.191 984.815 125.838C985.474 125.485 986.003 124.956 986.402 124.251C986.816 123.546 987.023 122.687 987.023 121.675C987.023 120.663 986.823 119.804 986.425 119.099C986.026 118.394 985.505 117.872 984.861 117.535C984.217 117.182 983.519 117.006 982.768 117.006C982.001 117.006 981.296 117.182 980.652 117.535C980.023 117.872 979.517 118.394 979.134 119.099C978.75 119.804 978.559 120.663 978.559 121.675C978.559 122.702 978.743 123.569 979.111 124.274C979.494 124.979 980 125.508 980.629 125.861C981.257 126.198 981.947 126.367 982.699 126.367ZM997.507 117.443C997.875 116.722 998.396 116.163 999.071 115.764C999.761 115.365 1000.6 115.166 1001.58 115.166V117.328H1001.03C998.68 117.328 997.507 118.601 997.507 121.146V128H995.414V115.396H997.507V117.443ZM1010.05 117.121V124.55C1010.05 125.163 1010.18 125.6 1010.44 125.861C1010.7 126.106 1011.15 126.229 1011.79 126.229H1013.34V128H1011.45C1010.28 128 1009.41 127.732 1008.83 127.195C1008.24 126.658 1007.95 125.777 1007.95 124.55V117.121H1006.32V115.396H1007.95V112.222H1010.05V115.396H1013.34V117.121H1010.05ZM1023.83 128.207C1022.87 128.207 1022 128.046 1021.23 127.724C1020.47 127.387 1019.86 126.927 1019.42 126.344C1018.97 125.746 1018.73 125.064 1018.68 124.297H1020.84C1020.9 124.926 1021.2 125.439 1021.72 125.838C1022.25 126.237 1022.95 126.436 1023.81 126.436C1024.61 126.436 1025.24 126.26 1025.7 125.907C1026.16 125.554 1026.39 125.11 1026.39 124.573C1026.39 124.021 1026.14 123.615 1025.65 123.354C1025.16 123.078 1024.4 122.81 1023.37 122.549C1022.44 122.304 1021.67 122.058 1021.07 121.813C1020.49 121.552 1019.98 121.177 1019.56 120.686C1019.14 120.18 1018.93 119.521 1018.93 118.708C1018.93 118.064 1019.13 117.474 1019.51 116.937C1019.89 116.4 1020.44 115.979 1021.14 115.672C1021.85 115.35 1022.65 115.189 1023.56 115.189C1024.95 115.189 1026.08 115.542 1026.94 116.247C1027.8 116.952 1028.26 117.918 1028.32 119.145H1026.23C1026.18 118.486 1025.91 117.957 1025.42 117.558C1024.95 117.159 1024.3 116.96 1023.49 116.96C1022.74 116.96 1022.14 117.121 1021.69 117.443C1021.25 117.765 1021.03 118.187 1021.03 118.708C1021.03 119.122 1021.16 119.467 1021.42 119.743C1021.69 120.004 1022.03 120.218 1022.43 120.387C1022.84 120.54 1023.41 120.717 1024.13 120.916C1025.04 121.161 1025.77 121.407 1026.34 121.652C1026.91 121.882 1027.39 122.235 1027.79 122.71C1028.2 123.185 1028.42 123.806 1028.43 124.573C1028.43 125.263 1028.24 125.884 1027.86 126.436C1027.48 126.988 1026.93 127.425 1026.23 127.747C1025.54 128.054 1024.74 128.207 1023.83 128.207ZM1035.56 128.138C1035.16 128.138 1034.82 128 1034.54 127.724C1034.27 127.448 1034.13 127.111 1034.13 126.712C1034.13 126.313 1034.27 125.976 1034.54 125.7C1034.82 125.424 1035.16 125.286 1035.56 125.286C1035.94 125.286 1036.26 125.424 1036.52 125.7C1036.8 125.976 1036.94 126.313 1036.94 126.712C1036.94 127.111 1036.8 127.448 1036.52 127.724C1036.26 128 1035.94 128.138 1035.56 128.138Z" fill="black"/>
<g clip-path="url(#clip0_518_352)">
<g opacity="0.8">
<path d="M494.35 39H504.4V129H494.95V58.2L463.6 129H455.65L424.6 57.9V129H415V39H425.2L459.7 117.45L494.35 39Z" fill="#999999"/>
<path d="M527.078 129V39H536.678V129H527.078Z" fill="#999999"/>
<path d="M623.791 39H633.241V129H624.241L568.741 55.05V129H559.141V39H568.141L623.791 112.95V39Z" fill="#999999"/>
<path d="M655.867 129V39H665.467V129H655.867Z" fill="#999999"/>
<path d="M767.28 39H777.33V129H767.88V58.2L736.53 129H728.58L697.53 57.9V129H687.93V39H698.13L732.63 117.45L767.28 39Z" fill="#999999"/>
<path d="M853.558 129L846.208 108H806.158L798.808 129H788.308L820.858 39H831.508L864.058 129H853.558ZM809.308 98.85H843.058L826.258 50.4L809.308 98.85Z" fill="#999999"/>
<path d="M884.561 119.4H918.011V129H874.961V39H884.561V119.4Z" fill="#999999"/>
</g>
</g>
<g clip-path="url(#clip1_518_352)">
<g opacity="0.8">
<path d="M494.35 39H504.4V129H494.95V58.2L463.6 129H455.65L424.6 57.9V129H415V39H425.2L459.7 117.45L494.35 39Z" fill="#595959"/>
<path d="M527.078 129V39H536.678V129H527.078Z" fill="#595959"/>
<path d="M623.791 39H633.241V129H624.241L568.741 55.05V129H559.141V39H568.141L623.791 112.95V39Z" fill="#595959"/>
<path d="M655.867 129V39H665.467V129H655.867Z" fill="#595959"/>
<path d="M767.28 39H777.33V129H767.88V58.2L736.53 129H728.58L697.53 57.9V129H687.93V39H698.13L732.63 117.45L767.28 39Z" fill="#595959"/>
<path d="M853.558 129L846.208 108H806.158L798.808 129H788.308L820.858 39H831.508L864.058 129H853.558ZM809.308 98.85H843.058L826.258 50.4L809.308 98.85Z" fill="#595959"/>
<path d="M884.561 119.4H918.011V129H874.961V39H884.561V119.4Z" fill="#595959"/>
</g>
</g>
<g clip-path="url(#clip2_518_352)">
<g opacity="0.8">
<path d="M494.35 39H504.4V129H494.95V58.2L463.6 129H455.65L424.6 57.9V129H415V39H425.2L459.7 117.45L494.35 39Z" fill="black"/>
<path d="M527.078 129V39H536.678V129H527.078Z" fill="black"/>
<path d="M623.791 39H633.241V129H624.241L568.741 55.05V129H559.141V39H568.141L623.791 112.95V39Z" fill="black"/>
<path d="M655.867 129V39H665.467V129H655.867Z" fill="black"/>
<path d="M767.28 39H777.33V129H767.88V58.2L736.53 129H728.58L697.53 57.9V129H687.93V39H698.13L732.63 117.45L767.28 39Z" fill="black"/>
<path d="M853.558 129L846.208 108H806.158L798.808 129H788.308L820.858 39H831.508L864.058 129H853.558ZM809.308 98.85H843.058L826.258 50.4L809.308 98.85Z" fill="black"/>
<path d="M884.561 119.4H918.011V129H874.961V39H884.561V119.4Z" fill="black"/>
</g>
</g>
<defs>
<clipPath id="clip0_518_352">
<rect width="503" height="31" fill="white" transform="translate(415 98)"/>
</clipPath>
<clipPath id="clip1_518_352">
<rect width="503" height="28" fill="white" transform="translate(415 70)"/>
</clipPath>
<clipPath id="clip2_518_352">
<rect width="503" height="31" fill="white" transform="translate(415 39)"/>
</clipPath>
</defs>
</svg>
