<svg width="1106" height="98" viewBox="0 0 1106 98" fill="none" xmlns="http://www.w3.org/2000/svg">
<path d="M44.9255 7.671V13.03H50.7675V14.755H44.9255V20.275H51.4575V22H42.8325V5.946H51.4575V7.671H44.9255ZM60.7655 9.166C62.2988 9.166 63.5408 9.63367 64.4915 10.569C65.4422 11.489 65.9175 12.823 65.9175 14.571V22H63.8475V14.87C63.8475 13.6127 63.5332 12.6543 62.9045 11.995C62.2758 11.3203 61.4172 10.983 60.3285 10.983C59.2245 10.983 58.3428 11.328 57.6835 12.018C57.0395 12.708 56.7175 13.7123 56.7175 15.031V22H54.6245V9.396H56.7175V11.19C57.1315 10.546 57.6912 10.0477 58.3965 9.695C59.1172 9.34233 59.9068 9.166 60.7655 9.166ZM73.7984 22.207C72.8324 22.207 71.9661 22.046 71.1994 21.724C70.4328 21.3867 69.8271 20.9267 69.3824 20.344C68.9378 19.746 68.6924 19.0637 68.6464 18.297H70.8084C70.8698 18.9257 71.1611 19.4393 71.6824 19.838C72.2191 20.2367 72.9168 20.436 73.7754 20.436C74.5728 20.436 75.2014 20.2597 75.6614 19.907C76.1214 19.5543 76.3514 19.1097 76.3514 18.573C76.3514 18.021 76.1061 17.6147 75.6154 17.354C75.1248 17.078 74.3658 16.8097 73.3384 16.549C72.4031 16.3037 71.6364 16.0583 71.0384 15.813C70.4558 15.5523 69.9498 15.1767 69.5204 14.686C69.1064 14.18 68.8994 13.5207 68.8994 12.708C68.8994 12.064 69.0911 11.4737 69.4744 10.937C69.8578 10.4003 70.4021 9.97867 71.1074 9.672C71.8128 9.35 72.6178 9.189 73.5224 9.189C74.9178 9.189 76.0448 9.54167 76.9034 10.247C77.7621 10.9523 78.2221 11.9183 78.2834 13.145H76.1904C76.1444 12.4857 75.8761 11.9567 75.3854 11.558C74.9101 11.1593 74.2661 10.96 73.4534 10.96C72.7021 10.96 72.1041 11.121 71.6594 11.443C71.2148 11.765 70.9924 12.1867 70.9924 12.708C70.9924 13.122 71.1228 13.467 71.3834 13.743C71.6594 14.0037 71.9968 14.2183 72.3954 14.387C72.8094 14.5403 73.3768 14.7167 74.0974 14.916C75.0021 15.1613 75.7381 15.4067 76.3054 15.652C76.8728 15.882 77.3558 16.2347 77.7544 16.71C78.1684 17.1853 78.3831 17.8063 78.3984 18.573C78.3984 19.263 78.2068 19.884 77.8234 20.436C77.4401 20.988 76.8958 21.425 76.1904 21.747C75.5004 22.0537 74.7031 22.207 73.7984 22.207ZM92.531 9.396V22H90.438V20.137C90.0394 20.781 89.4797 21.287 88.759 21.655C88.0537 22.0077 87.2717 22.184 86.413 22.184C85.4317 22.184 84.55 21.9847 83.768 21.586C82.986 21.172 82.365 20.5587 81.905 19.746C81.4604 18.9333 81.238 17.9443 81.238 16.779V9.396H83.308V16.503C83.308 17.745 83.6224 18.7033 84.251 19.378C84.8797 20.0373 85.7384 20.367 86.827 20.367C87.9464 20.367 88.828 20.022 89.472 19.332C90.116 18.642 90.438 17.6377 90.438 16.319V9.396H92.531ZM98.1579 11.443C98.5259 10.7223 99.0473 10.1627 99.7219 9.764C100.412 9.36533 101.248 9.166 102.229 9.166V11.328H101.677C99.3309 11.328 98.1579 12.6007 98.1579 15.146V22H96.0649V9.396H98.1579V11.443ZM116.145 15.215C116.145 15.6137 116.122 16.0353 116.076 16.48H106.002C106.079 17.722 106.5 18.6957 107.267 19.401C108.049 20.091 108.992 20.436 110.096 20.436C111.001 20.436 111.752 20.229 112.35 19.815C112.963 19.3857 113.393 18.8183 113.638 18.113H115.892C115.555 19.3243 114.88 20.3133 113.868 21.08C112.856 21.8313 111.599 22.207 110.096 22.207C108.9 22.207 107.827 21.9387 106.876 21.402C105.941 20.8653 105.205 20.1063 104.668 19.125C104.131 18.1283 103.863 16.9783 103.863 15.675C103.863 14.3717 104.124 13.2293 104.645 12.248C105.166 11.2667 105.895 10.5153 106.83 9.994C107.781 9.45733 108.869 9.189 110.096 9.189C111.292 9.189 112.35 9.44967 113.27 9.971C114.19 10.4923 114.895 11.213 115.386 12.133C115.892 13.0377 116.145 14.065 116.145 15.215ZM113.983 14.778C113.983 13.9807 113.807 13.2983 113.454 12.731C113.101 12.1483 112.618 11.7113 112.005 11.42C111.407 11.1133 110.74 10.96 110.004 10.96C108.946 10.96 108.041 11.2973 107.29 11.972C106.554 12.6467 106.132 13.582 106.025 14.778H113.983ZM127.593 11.121V18.55C127.593 19.1633 127.723 19.6003 127.984 19.861C128.244 20.1063 128.697 20.229 129.341 20.229H130.882V22H128.996C127.83 22 126.956 21.7317 126.374 21.195C125.791 20.6583 125.5 19.7767 125.5 18.55V11.121H123.867V9.396H125.5V6.222H127.593V9.396H130.882V11.121H127.593ZM139.673 9.166C140.624 9.166 141.483 9.373 142.249 9.787C143.016 10.1857 143.614 10.7913 144.043 11.604C144.488 12.4167 144.71 13.4057 144.71 14.571V22H142.64V14.87C142.64 13.6127 142.326 12.6543 141.697 11.995C141.069 11.3203 140.21 10.983 139.121 10.983C138.017 10.983 137.136 11.328 136.476 12.018C135.832 12.708 135.51 13.7123 135.51 15.031V22H133.417V4.98H135.51V11.19C135.924 10.546 136.492 10.0477 137.212 9.695C137.948 9.34233 138.769 9.166 139.673 9.166ZM159.629 15.215C159.629 15.6137 159.606 16.0353 159.56 16.48H149.486C149.563 17.722 149.985 18.6957 150.751 19.401C151.533 20.091 152.476 20.436 153.58 20.436C154.485 20.436 155.236 20.229 155.834 19.815C156.448 19.3857 156.877 18.8183 157.122 18.113H159.376C159.039 19.3243 158.364 20.3133 157.352 21.08C156.34 21.8313 155.083 22.207 153.58 22.207C152.384 22.207 151.311 21.9387 150.36 21.402C149.425 20.8653 148.689 20.1063 148.152 19.125C147.616 18.1283 147.347 16.9783 147.347 15.675C147.347 14.3717 147.608 13.2293 148.129 12.248C148.651 11.2667 149.379 10.5153 150.314 9.994C151.265 9.45733 152.354 9.189 153.58 9.189C154.776 9.189 155.834 9.44967 156.754 9.971C157.674 10.4923 158.38 11.213 158.87 12.133C159.376 13.0377 159.629 14.065 159.629 15.215ZM157.467 14.778C157.467 13.9807 157.291 13.2983 156.938 12.731C156.586 12.1483 156.103 11.7113 155.489 11.42C154.891 11.1133 154.224 10.96 153.488 10.96C152.43 10.96 151.526 11.2973 150.774 11.972C150.038 12.6467 149.617 13.582 149.509 14.778H157.467ZM170.617 11.719C171.031 10.9983 171.644 10.4003 172.457 9.925C173.285 9.43433 174.243 9.189 175.332 9.189C176.451 9.189 177.463 9.45733 178.368 9.994C179.288 10.5307 180.009 11.2897 180.53 12.271C181.051 13.237 181.312 14.364 181.312 15.652C181.312 16.9247 181.051 18.0593 180.53 19.056C180.009 20.0527 179.288 20.827 178.368 21.379C177.463 21.931 176.451 22.207 175.332 22.207C174.259 22.207 173.308 21.9693 172.48 21.494C171.667 21.0033 171.046 20.3977 170.617 19.677V27.98H168.524V9.396H170.617V11.719ZM179.173 15.652C179.173 14.7013 178.981 13.8733 178.598 13.168C178.215 12.4627 177.693 11.926 177.034 11.558C176.39 11.19 175.677 11.006 174.895 11.006C174.128 11.006 173.415 11.1977 172.756 11.581C172.112 11.949 171.591 12.4933 171.192 13.214C170.809 13.9193 170.617 14.7397 170.617 15.675C170.617 16.6257 170.809 17.4613 171.192 18.182C171.591 18.8873 172.112 19.4317 172.756 19.815C173.415 20.183 174.128 20.367 174.895 20.367C175.677 20.367 176.39 20.183 177.034 19.815C177.693 19.4317 178.215 18.8873 178.598 18.182C178.981 17.4613 179.173 16.618 179.173 15.652ZM186.16 11.443C186.528 10.7223 187.049 10.1627 187.724 9.764C188.414 9.36533 189.25 9.166 190.231 9.166V11.328H189.679C187.333 11.328 186.16 12.6007 186.16 15.146V22H184.067V9.396H186.16V11.443ZM198.144 22.207C196.963 22.207 195.89 21.9387 194.924 21.402C193.973 20.8653 193.222 20.1063 192.67 19.125C192.133 18.1283 191.865 16.9783 191.865 15.675C191.865 14.387 192.141 13.2523 192.693 12.271C193.26 11.2743 194.027 10.5153 194.993 9.994C195.959 9.45733 197.04 9.189 198.236 9.189C199.432 9.189 200.513 9.45733 201.479 9.994C202.445 10.5153 203.204 11.2667 203.756 12.248C204.323 13.2293 204.607 14.3717 204.607 15.675C204.607 16.9783 204.316 18.1283 203.733 19.125C203.166 20.1063 202.391 20.8653 201.41 21.402C200.429 21.9387 199.34 22.207 198.144 22.207ZM198.144 20.367C198.895 20.367 199.601 20.1907 200.26 19.838C200.919 19.4853 201.448 18.9563 201.847 18.251C202.261 17.5457 202.468 16.687 202.468 15.675C202.468 14.663 202.269 13.8043 201.87 13.099C201.471 12.3937 200.95 11.8723 200.306 11.535C199.662 11.1823 198.964 11.006 198.213 11.006C197.446 11.006 196.741 11.1823 196.097 11.535C195.468 11.8723 194.962 12.3937 194.579 13.099C194.196 13.8043 194.004 14.663 194.004 15.675C194.004 16.7023 194.188 17.5687 194.556 18.274C194.939 18.9793 195.445 19.5083 196.074 19.861C196.703 20.1983 197.393 20.367 198.144 20.367ZM206.577 15.652C206.577 14.364 206.838 13.237 207.359 12.271C207.88 11.2897 208.593 10.5307 209.498 9.994C210.418 9.45733 211.445 9.189 212.58 9.189C213.561 9.189 214.474 9.419 215.317 9.879C216.16 10.3237 216.804 10.914 217.249 11.65V4.98H219.365V22H217.249V19.631C216.835 20.3823 216.222 21.0033 215.409 21.494C214.596 21.9693 213.646 22.207 212.557 22.207C211.438 22.207 210.418 21.931 209.498 21.379C208.593 20.827 207.88 20.0527 207.359 19.056C206.838 18.0593 206.577 16.9247 206.577 15.652ZM217.249 15.675C217.249 14.7243 217.057 13.8963 216.674 13.191C216.291 12.4857 215.769 11.949 215.11 11.581C214.466 11.1977 213.753 11.006 212.971 11.006C212.189 11.006 211.476 11.19 210.832 11.558C210.188 11.926 209.674 12.4627 209.291 13.168C208.908 13.8733 208.716 14.7013 208.716 15.652C208.716 16.618 208.908 17.4613 209.291 18.182C209.674 18.8873 210.188 19.4317 210.832 19.815C211.476 20.183 212.189 20.367 212.971 20.367C213.753 20.367 214.466 20.183 215.11 19.815C215.769 19.4317 216.291 18.8873 216.674 18.182C217.057 17.4613 217.249 16.6257 217.249 15.675ZM234.08 9.396V22H231.987V20.137C231.588 20.781 231.029 21.287 230.308 21.655C229.603 22.0077 228.821 22.184 227.962 22.184C226.981 22.184 226.099 21.9847 225.317 21.586C224.535 21.172 223.914 20.5587 223.454 19.746C223.009 18.9333 222.787 17.9443 222.787 16.779V9.396H224.857V16.503C224.857 17.745 225.171 18.7033 225.8 19.378C226.429 20.0373 227.287 20.367 228.376 20.367C229.495 20.367 230.377 20.022 231.021 19.332C231.665 18.642 231.987 17.6377 231.987 16.319V9.396H234.08ZM236.832 15.675C236.832 14.3717 237.092 13.237 237.614 12.271C238.135 11.2897 238.856 10.5307 239.776 9.994C240.711 9.45733 241.777 9.189 242.973 9.189C244.521 9.189 245.794 9.56467 246.791 10.316C247.803 11.0673 248.47 12.11 248.792 13.444H246.538C246.323 12.6773 245.901 12.0717 245.273 11.627C244.659 11.1823 243.893 10.96 242.973 10.96C241.777 10.96 240.811 11.374 240.075 12.202C239.339 13.0147 238.971 14.1723 238.971 15.675C238.971 17.193 239.339 18.366 240.075 19.194C240.811 20.022 241.777 20.436 242.973 20.436C243.893 20.436 244.659 20.2213 245.273 19.792C245.886 19.3627 246.308 18.7493 246.538 17.952H248.792C248.454 19.24 247.78 20.275 246.768 21.057C245.756 21.8237 244.491 22.207 242.973 22.207C241.777 22.207 240.711 21.9387 239.776 21.402C238.856 20.8653 238.135 20.1063 237.614 19.125C237.092 18.1437 236.832 16.9937 236.832 15.675ZM254.137 11.121V18.55C254.137 19.1633 254.268 19.6003 254.528 19.861C254.789 20.1063 255.241 20.229 255.885 20.229H257.426V22H255.54C254.375 22 253.501 21.7317 252.918 21.195C252.336 20.6583 252.044 19.7767 252.044 18.55V11.121H250.411V9.396H252.044V6.222H254.137V9.396H257.426V11.121H254.137ZM267.175 7.349C266.777 7.349 266.439 7.211 266.163 6.935C265.887 6.659 265.749 6.32167 265.749 5.923C265.749 5.52433 265.887 5.187 266.163 4.911C266.439 4.635 266.777 4.497 267.175 4.497C267.559 4.497 267.881 4.635 268.141 4.911C268.417 5.187 268.555 5.52433 268.555 5.923C268.555 6.32167 268.417 6.659 268.141 6.935C267.881 7.211 267.559 7.349 267.175 7.349ZM268.187 9.396V22H266.094V9.396H268.187ZM276.216 22.207C275.25 22.207 274.384 22.046 273.617 21.724C272.851 21.3867 272.245 20.9267 271.8 20.344C271.356 19.746 271.11 19.0637 271.064 18.297H273.226C273.288 18.9257 273.579 19.4393 274.1 19.838C274.637 20.2367 275.335 20.436 276.193 20.436C276.991 20.436 277.619 20.2597 278.079 19.907C278.539 19.5543 278.769 19.1097 278.769 18.573C278.769 18.021 278.524 17.6147 278.033 17.354C277.543 17.078 276.784 16.8097 275.756 16.549C274.821 16.3037 274.054 16.0583 273.456 15.813C272.874 15.5523 272.368 15.1767 271.938 14.686C271.524 14.18 271.317 13.5207 271.317 12.708C271.317 12.064 271.509 11.4737 271.892 10.937C272.276 10.4003 272.82 9.97867 273.525 9.672C274.231 9.35 275.036 9.189 275.94 9.189C277.336 9.189 278.463 9.54167 279.321 10.247C280.18 10.9523 280.64 11.9183 280.701 13.145H278.608C278.562 12.4857 278.294 11.9567 277.803 11.558C277.328 11.1593 276.684 10.96 275.871 10.96C275.12 10.96 274.522 11.121 274.077 11.443C273.633 11.765 273.41 12.1867 273.41 12.708C273.41 13.122 273.541 13.467 273.801 13.743C274.077 14.0037 274.415 14.2183 274.813 14.387C275.227 14.5403 275.795 14.7167 276.515 14.916C277.42 15.1613 278.156 15.4067 278.723 15.652C279.291 15.882 279.774 16.2347 280.172 16.71C280.586 17.1853 280.801 17.8063 280.816 18.573C280.816 19.263 280.625 19.884 280.241 20.436C279.858 20.988 279.314 21.425 278.608 21.747C277.918 22.0537 277.121 22.207 276.216 22.207Z" fill="black"/>
<path d="M831.762 5.969C833.51 5.969 835.02 6.29867 836.293 6.958C837.581 7.602 838.562 8.52967 839.237 9.741C839.927 10.9523 840.272 12.3783 840.272 14.019C840.272 15.6597 839.927 17.0857 839.237 18.297C838.562 19.493 837.581 20.413 836.293 21.057C835.02 21.6857 833.51 22 831.762 22H826.771V5.969H831.762ZM831.762 20.275C833.832 20.275 835.411 19.7307 836.5 18.642C837.589 17.538 838.133 15.997 838.133 14.019C838.133 12.0257 837.581 10.4693 836.477 9.35C835.388 8.23067 833.817 7.671 831.762 7.671H828.864V20.275H831.762ZM854.533 15.215C854.533 15.6137 854.51 16.0353 854.464 16.48H844.39C844.466 17.722 844.888 18.6957 845.655 19.401C846.437 20.091 847.38 20.436 848.484 20.436C849.388 20.436 850.14 20.229 850.738 19.815C851.351 19.3857 851.78 18.8183 852.026 18.113H854.28C853.942 19.3243 853.268 20.3133 852.256 21.08C851.244 21.8313 849.986 22.207 848.484 22.207C847.288 22.207 846.214 21.9387 845.264 21.402C844.328 20.8653 843.592 20.1063 843.056 19.125C842.519 18.1283 842.251 16.9783 842.251 15.675C842.251 14.3717 842.511 13.2293 843.033 12.248C843.554 11.2667 844.282 10.5153 845.218 9.994C846.168 9.45733 847.257 9.189 848.484 9.189C849.68 9.189 850.738 9.44967 851.658 9.971C852.578 10.4923 853.283 11.213 853.774 12.133C854.28 13.0377 854.533 14.065 854.533 15.215ZM852.371 14.778C852.371 13.9807 852.194 13.2983 851.842 12.731C851.489 12.1483 851.006 11.7113 850.393 11.42C849.795 11.1133 849.128 10.96 848.392 10.96C847.334 10.96 846.429 11.2973 845.678 11.972C844.942 12.6467 844.52 13.582 844.413 14.778H852.371ZM861.757 22.207C860.791 22.207 859.925 22.046 859.158 21.724C858.392 21.3867 857.786 20.9267 857.341 20.344C856.897 19.746 856.651 19.0637 856.605 18.297H858.767C858.829 18.9257 859.12 19.4393 859.641 19.838C860.178 20.2367 860.876 20.436 861.734 20.436C862.532 20.436 863.16 20.2597 863.62 19.907C864.08 19.5543 864.31 19.1097 864.31 18.573C864.31 18.021 864.065 17.6147 863.574 17.354C863.084 17.078 862.325 16.8097 861.297 16.549C860.362 16.3037 859.595 16.0583 858.997 15.813C858.415 15.5523 857.909 15.1767 857.479 14.686C857.065 14.18 856.858 13.5207 856.858 12.708C856.858 12.064 857.05 11.4737 857.433 10.937C857.817 10.4003 858.361 9.97867 859.066 9.672C859.772 9.35 860.577 9.189 861.481 9.189C862.877 9.189 864.004 9.54167 864.862 10.247C865.721 10.9523 866.181 11.9183 866.242 13.145H864.149C864.103 12.4857 863.835 11.9567 863.344 11.558C862.869 11.1593 862.225 10.96 861.412 10.96C860.661 10.96 860.063 11.121 859.618 11.443C859.174 11.765 858.951 12.1867 858.951 12.708C858.951 13.122 859.082 13.467 859.342 13.743C859.618 14.0037 859.956 14.2183 860.354 14.387C860.768 14.5403 861.336 14.7167 862.056 14.916C862.961 15.1613 863.697 15.4067 864.264 15.652C864.832 15.882 865.315 16.2347 865.713 16.71C866.127 17.1853 866.342 17.8063 866.357 18.573C866.357 19.263 866.166 19.884 865.782 20.436C865.399 20.988 864.855 21.425 864.149 21.747C863.459 22.0537 862.662 22.207 861.757 22.207ZM870.393 7.349C869.994 7.349 869.657 7.211 869.381 6.935C869.105 6.659 868.967 6.32167 868.967 5.923C868.967 5.52433 869.105 5.187 869.381 4.911C869.657 4.635 869.994 4.497 870.393 4.497C870.776 4.497 871.098 4.635 871.359 4.911C871.635 5.187 871.773 5.52433 871.773 5.923C871.773 6.32167 871.635 6.659 871.359 6.935C871.098 7.211 870.776 7.349 870.393 7.349ZM871.405 9.396V22H869.312V9.396H871.405ZM880.17 9.189C881.259 9.189 882.21 9.42667 883.022 9.902C883.85 10.3773 884.464 10.9753 884.862 11.696V9.396H886.978V22.276C886.978 23.426 886.733 24.4457 886.242 25.335C885.752 26.2397 885.046 26.945 884.126 27.451C883.222 27.957 882.164 28.21 880.952 28.21C879.296 28.21 877.916 27.819 876.812 27.037C875.708 26.255 875.057 25.1893 874.857 23.84H876.927C877.157 24.6067 877.633 25.22 878.353 25.68C879.074 26.1553 879.94 26.393 880.952 26.393C882.102 26.393 883.038 26.0327 883.758 25.312C884.494 24.5913 884.862 23.5793 884.862 22.276V19.631C884.448 20.367 883.835 20.9803 883.022 21.471C882.21 21.9617 881.259 22.207 880.17 22.207C879.051 22.207 878.031 21.931 877.111 21.379C876.207 20.827 875.494 20.0527 874.972 19.056C874.451 18.0593 874.19 16.9247 874.19 15.652C874.19 14.364 874.451 13.237 874.972 12.271C875.494 11.2897 876.207 10.5307 877.111 9.994C878.031 9.45733 879.051 9.189 880.17 9.189ZM884.862 15.675C884.862 14.7243 884.671 13.8963 884.287 13.191C883.904 12.4857 883.383 11.949 882.723 11.581C882.079 11.1977 881.366 11.006 880.584 11.006C879.802 11.006 879.089 11.19 878.445 11.558C877.801 11.926 877.288 12.4627 876.904 13.168C876.521 13.8733 876.329 14.7013 876.329 15.652C876.329 16.618 876.521 17.4613 876.904 18.182C877.288 18.8873 877.801 19.4317 878.445 19.815C879.089 20.183 879.802 20.367 880.584 20.367C881.366 20.367 882.079 20.183 882.723 19.815C883.383 19.4317 883.904 18.8873 884.287 18.182C884.671 17.4613 884.862 16.6257 884.862 15.675ZM896.656 9.166C898.189 9.166 899.431 9.63367 900.382 10.569C901.333 11.489 901.808 12.823 901.808 14.571V22H899.738V14.87C899.738 13.6127 899.424 12.6543 898.795 11.995C898.166 11.3203 897.308 10.983 896.219 10.983C895.115 10.983 894.233 11.328 893.574 12.018C892.93 12.708 892.608 13.7123 892.608 15.031V22H890.515V9.396H892.608V11.19C893.022 10.546 893.582 10.0477 894.287 9.695C895.008 9.34233 895.797 9.166 896.656 9.166ZM907.389 19.102L904.813 25.289H903.41L905.089 19.102H907.389Z" fill="black"/>
<path opacity="0.65" d="M141.81 46.121V53.55C141.81 54.1633 141.941 54.6003 142.201 54.861C142.462 55.1063 142.914 55.229 143.558 55.229H145.099V57H143.213C142.048 57 141.174 56.7317 140.591 56.195C140.009 55.6583 139.717 54.7767 139.717 53.55V46.121H138.084V44.396H139.717V41.222H141.81V44.396H145.099V46.121H141.81ZM153.132 57.207C151.952 57.207 150.878 56.9387 149.912 56.402C148.962 55.8653 148.21 55.1063 147.658 54.125C147.122 53.1283 146.853 51.9783 146.853 50.675C146.853 49.387 147.129 48.2523 147.681 47.271C148.249 46.2743 149.015 45.5153 149.981 44.994C150.947 44.4573 152.028 44.189 153.224 44.189C154.42 44.189 155.501 44.4573 156.467 44.994C157.433 45.5153 158.192 46.2667 158.744 47.248C159.312 48.2293 159.595 49.3717 159.595 50.675C159.595 51.9783 159.304 53.1283 158.721 54.125C158.154 55.1063 157.38 55.8653 156.398 56.402C155.417 56.9387 154.328 57.207 153.132 57.207ZM153.132 55.367C153.884 55.367 154.589 55.1907 155.248 54.838C155.908 54.4853 156.437 53.9563 156.835 53.251C157.249 52.5457 157.456 51.687 157.456 50.675C157.456 49.663 157.257 48.8043 156.858 48.099C156.46 47.3937 155.938 46.8723 155.294 46.535C154.65 46.1823 153.953 46.006 153.201 46.006C152.435 46.006 151.729 46.1823 151.085 46.535C150.457 46.8723 149.951 47.3937 149.567 48.099C149.184 48.8043 148.992 49.663 148.992 50.675C148.992 51.7023 149.176 52.5687 149.544 53.274C149.928 53.9793 150.434 54.5083 151.062 54.861C151.691 55.1983 152.381 55.367 153.132 55.367ZM170.572 46.443C170.94 45.7223 171.461 45.1627 172.136 44.764C172.826 44.3653 173.662 44.166 174.643 44.166V46.328H174.091C171.745 46.328 170.572 47.6007 170.572 50.146V57H168.479V44.396H170.572V46.443ZM188.559 50.215C188.559 50.6137 188.536 51.0353 188.49 51.48H178.416C178.493 52.722 178.914 53.6957 179.681 54.401C180.463 55.091 181.406 55.436 182.51 55.436C183.415 55.436 184.166 55.229 184.764 54.815C185.377 54.3857 185.807 53.8183 186.052 53.113H188.306C187.969 54.3243 187.294 55.3133 186.282 56.08C185.27 56.8313 184.013 57.207 182.51 57.207C181.314 57.207 180.241 56.9387 179.29 56.402C178.355 55.8653 177.619 55.1063 177.082 54.125C176.545 53.1283 176.277 51.9783 176.277 50.675C176.277 49.3717 176.538 48.2293 177.059 47.248C177.58 46.2667 178.309 45.5153 179.244 44.994C180.195 44.4573 181.283 44.189 182.51 44.189C183.706 44.189 184.764 44.4497 185.684 44.971C186.604 45.4923 187.309 46.213 187.8 47.133C188.306 48.0377 188.559 49.065 188.559 50.215ZM186.397 49.778C186.397 48.9807 186.221 48.2983 185.868 47.731C185.515 47.1483 185.032 46.7113 184.419 46.42C183.821 46.1133 183.154 45.96 182.418 45.96C181.36 45.96 180.455 46.2973 179.704 46.972C178.968 47.6467 178.546 48.582 178.439 49.778H186.397ZM190.54 50.652C190.54 49.364 190.8 48.237 191.322 47.271C191.843 46.2897 192.556 45.5307 193.461 44.994C194.381 44.4573 195.408 44.189 196.543 44.189C197.631 44.189 198.582 44.4343 199.395 44.925C200.223 45.4003 200.828 45.9907 201.212 46.696V44.396H203.328V62.98H201.212V54.677C200.813 55.3823 200.2 55.9803 199.372 56.471C198.544 56.9617 197.578 57.207 196.474 57.207C195.37 57.207 194.365 56.931 193.461 56.379C192.556 55.827 191.843 55.0527 191.322 54.056C190.8 53.0593 190.54 51.9247 190.54 50.652ZM201.212 50.675C201.212 49.7243 201.02 48.8963 200.637 48.191C200.253 47.4857 199.732 46.949 199.073 46.581C198.429 46.1977 197.716 46.006 196.934 46.006C196.152 46.006 195.439 46.19 194.795 46.558C194.151 46.926 193.637 47.4627 193.254 48.168C192.87 48.8733 192.679 49.7013 192.679 50.652C192.679 51.618 192.87 52.4613 193.254 53.182C193.637 53.8873 194.151 54.4317 194.795 54.815C195.439 55.183 196.152 55.367 196.934 55.367C197.716 55.367 198.429 55.183 199.073 54.815C199.732 54.4317 200.253 53.8873 200.637 53.182C201.02 52.4613 201.212 51.6257 201.212 50.675ZM218.043 44.396V57H215.95V55.137C215.551 55.781 214.991 56.287 214.271 56.655C213.565 57.0077 212.783 57.184 211.925 57.184C210.943 57.184 210.062 56.9847 209.28 56.586C208.498 56.172 207.877 55.5587 207.417 54.746C206.972 53.9333 206.75 52.9443 206.75 51.779V44.396H208.82V51.503C208.82 52.745 209.134 53.7033 209.763 54.378C210.391 55.0373 211.25 55.367 212.339 55.367C213.458 55.367 214.34 55.022 214.984 54.332C215.628 53.642 215.95 52.6377 215.95 51.319V44.396H218.043ZM222.658 42.349C222.259 42.349 221.922 42.211 221.646 41.935C221.37 41.659 221.232 41.3217 221.232 40.923C221.232 40.5243 221.37 40.187 221.646 39.911C221.922 39.635 222.259 39.497 222.658 39.497C223.041 39.497 223.363 39.635 223.624 39.911C223.9 40.187 224.038 40.5243 224.038 40.923C224.038 41.3217 223.9 41.659 223.624 41.935C223.363 42.211 223.041 42.349 222.658 42.349ZM223.67 44.396V57H221.577V44.396H223.67ZM229.33 46.443C229.698 45.7223 230.219 45.1627 230.894 44.764C231.584 44.3653 232.419 44.166 233.401 44.166V46.328H232.849C230.503 46.328 229.33 47.6007 229.33 50.146V57H227.237V44.396H229.33V46.443ZM247.317 50.215C247.317 50.6137 247.294 51.0353 247.248 51.48H237.174C237.251 52.722 237.672 53.6957 238.439 54.401C239.221 55.091 240.164 55.436 241.268 55.436C242.173 55.436 242.924 55.229 243.522 54.815C244.135 54.3857 244.565 53.8183 244.81 53.113H247.064C246.727 54.3243 246.052 55.3133 245.04 56.08C244.028 56.8313 242.771 57.207 241.268 57.207C240.072 57.207 238.999 56.9387 238.048 56.402C237.113 55.8653 236.377 55.1063 235.84 54.125C235.303 53.1283 235.035 51.9783 235.035 50.675C235.035 49.3717 235.296 48.2293 235.817 47.248C236.338 46.2667 237.067 45.5153 238.002 44.994C238.953 44.4573 240.041 44.189 241.268 44.189C242.464 44.189 243.522 44.4497 244.442 44.971C245.362 45.4923 246.067 46.213 246.558 47.133C247.064 48.0377 247.317 49.065 247.317 50.215ZM245.155 49.778C245.155 48.9807 244.979 48.2983 244.626 47.731C244.273 47.1483 243.79 46.7113 243.177 46.42C242.579 46.1133 241.912 45.96 241.176 45.96C240.118 45.96 239.213 46.2973 238.462 46.972C237.726 47.6467 237.304 48.582 237.197 49.778H245.155ZM254.542 57.207C253.576 57.207 252.709 57.046 251.943 56.724C251.176 56.3867 250.57 55.9267 250.126 55.344C249.681 54.746 249.436 54.0637 249.39 53.297H251.552C251.613 53.9257 251.904 54.4393 252.426 54.838C252.962 55.2367 253.66 55.436 254.519 55.436C255.316 55.436 255.945 55.2597 256.405 54.907C256.865 54.5543 257.095 54.1097 257.095 53.573C257.095 53.021 256.849 52.6147 256.359 52.354C255.868 52.078 255.109 51.8097 254.082 51.549C253.146 51.3037 252.38 51.0583 251.782 50.813C251.199 50.5523 250.693 50.1767 250.264 49.686C249.85 49.18 249.643 48.5207 249.643 47.708C249.643 47.064 249.834 46.4737 250.218 45.937C250.601 45.4003 251.145 44.9787 251.851 44.672C252.556 44.35 253.361 44.189 254.266 44.189C255.661 44.189 256.788 44.5417 257.647 45.247C258.505 45.9523 258.965 46.9183 259.027 48.145H256.934C256.888 47.4857 256.619 46.9567 256.129 46.558C255.653 46.1593 255.009 45.96 254.197 45.96C253.445 45.96 252.847 46.121 252.403 46.443C251.958 46.765 251.736 47.1867 251.736 47.708C251.736 48.122 251.866 48.467 252.127 48.743C252.403 49.0037 252.74 49.2183 253.139 49.387C253.553 49.5403 254.12 49.7167 254.841 49.916C255.745 50.1613 256.481 50.4067 257.049 50.652C257.616 50.882 258.099 51.2347 258.498 51.71C258.912 52.1853 259.126 52.8063 259.142 53.573C259.142 54.263 258.95 54.884 258.567 55.436C258.183 55.988 257.639 56.425 256.934 56.747C256.244 57.0537 255.446 57.207 254.542 57.207ZM267.446 50.652C267.446 49.364 267.707 48.237 268.228 47.271C268.749 46.2897 269.462 45.5307 270.367 44.994C271.287 44.4573 272.307 44.189 273.426 44.189C274.53 44.189 275.488 44.4267 276.301 44.902C277.114 45.3773 277.719 45.9753 278.118 46.696V44.396H280.234V57H278.118V54.654C277.704 55.39 277.083 56.0033 276.255 56.494C275.442 56.9693 274.492 57.207 273.403 57.207C272.284 57.207 271.272 56.931 270.367 56.379C269.462 55.827 268.749 55.0527 268.228 54.056C267.707 53.0593 267.446 51.9247 267.446 50.652ZM278.118 50.675C278.118 49.7243 277.926 48.8963 277.543 48.191C277.16 47.4857 276.638 46.949 275.979 46.581C275.335 46.1977 274.622 46.006 273.84 46.006C273.058 46.006 272.345 46.19 271.701 46.558C271.057 46.926 270.543 47.4627 270.16 48.168C269.777 48.8733 269.585 49.7013 269.585 50.652C269.585 51.618 269.777 52.4613 270.16 53.182C270.543 53.8873 271.057 54.4317 271.701 54.815C272.345 55.183 273.058 55.367 273.84 55.367C274.622 55.367 275.335 55.183 275.979 54.815C276.638 54.4317 277.16 53.8873 277.543 53.182C277.926 52.4613 278.118 51.6257 278.118 50.675Z" fill="black"/>
<path opacity="0.4" d="M5.15798 81.121V88.55C5.15798 89.1633 5.28832 89.6003 5.54898 89.861C5.80965 90.1063 6.26198 90.229 6.90598 90.229H8.44699V92H6.56098C5.39565 92 4.52165 91.7317 3.93898 91.195C3.35632 90.6583 3.06498 89.7767 3.06498 88.55V81.121H1.43198V79.396H3.06498V76.222H5.15798V79.396H8.44699V81.121H5.15798ZM16.4799 92.207C15.2992 92.207 14.2259 91.9387 13.2599 91.402C12.3092 90.8653 11.5579 90.1063 11.0059 89.125C10.4692 88.1283 10.2009 86.9783 10.2009 85.675C10.2009 84.387 10.4769 83.2523 11.0289 82.271C11.5962 81.2743 12.3629 80.5153 13.3289 79.994C14.2949 79.4573 15.3759 79.189 16.5719 79.189C17.7679 79.189 18.8489 79.4573 19.8149 79.994C20.7809 80.5153 21.5399 81.2667 22.0919 82.248C22.6592 83.2293 22.9429 84.3717 22.9429 85.675C22.9429 86.9783 22.6516 88.1283 22.0689 89.125C21.5016 90.1063 20.7272 90.8653 19.7459 91.402C18.7646 91.9387 17.6759 92.207 16.4799 92.207ZM16.4799 90.367C17.2312 90.367 17.9366 90.1907 18.5959 89.838C19.2552 89.4853 19.7842 88.9563 20.1829 88.251C20.5969 87.5457 20.8039 86.687 20.8039 85.675C20.8039 84.663 20.6046 83.8043 20.2059 83.099C19.8072 82.3937 19.2859 81.8723 18.6419 81.535C17.9979 81.1823 17.3002 81.006 16.5489 81.006C15.7822 81.006 15.0769 81.1823 14.4329 81.535C13.8042 81.8723 13.2982 82.3937 12.9149 83.099C12.5316 83.8043 12.3399 84.663 12.3399 85.675C12.3399 86.7023 12.5239 87.5687 12.8919 88.274C13.2752 88.9793 13.7812 89.5083 14.4099 89.861C15.0386 90.1983 15.7286 90.367 16.4799 90.367ZM36.9557 81.121H34.3107V92H32.2177V81.121H30.5847V79.396H32.2177V78.499C32.2177 77.0883 32.578 76.061 33.2987 75.417C34.0347 74.7577 35.2077 74.428 36.8177 74.428V76.176C35.8977 76.176 35.246 76.36 34.8627 76.728C34.4947 77.0807 34.3107 77.671 34.3107 78.499V79.396H36.9557V81.121ZM50.574 79.396V92H48.481V90.137C48.0823 90.781 47.5227 91.287 46.802 91.655C46.0967 92.0077 45.3147 92.184 44.456 92.184C43.4747 92.184 42.593 91.9847 41.811 91.586C41.029 91.172 40.408 90.5587 39.948 89.746C39.5033 88.9333 39.281 87.9443 39.281 86.779V79.396H41.351V86.503C41.351 87.745 41.6653 88.7033 42.294 89.378C42.9227 90.0373 43.7813 90.367 44.87 90.367C45.9893 90.367 46.871 90.022 47.515 89.332C48.159 88.642 48.481 87.6377 48.481 86.319V79.396H50.574ZM56.2009 74.98V92H54.1079V74.98H56.2009ZM64.8971 81.121H62.2521V92H60.1591V81.121H58.5261V79.396H60.1591V78.499C60.1591 77.0883 60.5194 76.061 61.2401 75.417C61.9761 74.7577 63.1491 74.428 64.7591 74.428V76.176C63.8391 76.176 63.1874 76.36 62.8041 76.728C62.4361 77.0807 62.2521 77.671 62.2521 78.499V79.396H64.8971V81.121ZM68.4184 77.349C68.0197 77.349 67.6824 77.211 67.4064 76.935C67.1304 76.659 66.9924 76.3217 66.9924 75.923C66.9924 75.5243 67.1304 75.187 67.4064 74.911C67.6824 74.635 68.0197 74.497 68.4184 74.497C68.8017 74.497 69.1237 74.635 69.3844 74.911C69.6604 75.187 69.7984 75.5243 69.7984 75.923C69.7984 76.3217 69.6604 76.659 69.3844 76.935C69.1237 77.211 68.8017 77.349 68.4184 77.349ZM69.4304 79.396V92H67.3374V79.396H69.4304ZM75.0906 74.98V92H72.9976V74.98H75.0906ZM80.7507 74.98V92H78.6577V74.98H80.7507ZM88.7799 92.207C87.8139 92.207 86.9475 92.046 86.1809 91.724C85.4142 91.3867 84.8085 90.9267 84.3639 90.344C83.9192 89.746 83.6739 89.0637 83.6279 88.297H85.7899C85.8512 88.9257 86.1425 89.4393 86.6639 89.838C87.2005 90.2367 87.8982 90.436 88.7569 90.436C89.5542 90.436 90.1829 90.2597 90.6429 89.907C91.1029 89.5543 91.3329 89.1097 91.3329 88.573C91.3329 88.021 91.0875 87.6147 90.5969 87.354C90.1062 87.078 89.3472 86.8097 88.3199 86.549C87.3845 86.3037 86.6179 86.0583 86.0199 85.813C85.4372 85.5523 84.9312 85.1767 84.5019 84.686C84.0879 84.18 83.8809 83.5207 83.8809 82.708C83.8809 82.064 84.0725 81.4737 84.4559 80.937C84.8392 80.4003 85.3835 79.9787 86.0889 79.672C86.7942 79.35 87.5992 79.189 88.5039 79.189C89.8992 79.189 91.0262 79.5417 91.8849 80.247C92.7435 80.9523 93.2035 81.9183 93.2649 83.145H91.1719C91.1259 82.4857 90.8575 81.9567 90.3669 81.558C89.8915 81.1593 89.2475 80.96 88.4349 80.96C87.6835 80.96 87.0855 81.121 86.6409 81.443C86.1962 81.765 85.9739 82.1867 85.9739 82.708C85.9739 83.122 86.1042 83.467 86.3649 83.743C86.6409 84.0037 86.9782 84.2183 87.3769 84.387C87.7909 84.5403 88.3582 84.7167 89.0789 84.916C89.9835 85.1613 90.7195 85.4067 91.2869 85.652C91.8542 85.882 92.3372 86.2347 92.7359 86.71C93.1499 87.1853 93.3645 87.8063 93.3799 88.573C93.3799 89.263 93.1882 89.884 92.8049 90.436C92.4215 90.988 91.8772 91.425 91.1719 91.747C90.4819 92.0537 89.6845 92.207 88.7799 92.207ZM103.547 77.349C103.149 77.349 102.811 77.211 102.535 76.935C102.259 76.659 102.121 76.3217 102.121 75.923C102.121 75.5243 102.259 75.187 102.535 74.911C102.811 74.635 103.149 74.497 103.547 74.497C103.931 74.497 104.253 74.635 104.513 74.911C104.789 75.187 104.927 75.5243 104.927 75.923C104.927 76.3217 104.789 76.659 104.513 76.935C104.253 77.211 103.931 77.349 103.547 77.349ZM104.559 79.396V92H102.466V79.396H104.559ZM110.679 81.121V88.55C110.679 89.1633 110.81 89.6003 111.07 89.861C111.331 90.1063 111.783 90.229 112.427 90.229H113.968V92H112.082C110.917 92 110.043 91.7317 109.46 91.195C108.878 90.6583 108.586 89.7767 108.586 88.55V81.121H106.953V79.396H108.586V76.222H110.679V79.396H113.968V81.121H110.679ZM120.966 92.207C120 92.207 119.134 92.046 118.367 91.724C117.601 91.3867 116.995 90.9267 116.55 90.344C116.106 89.746 115.86 89.0637 115.814 88.297H117.976C118.038 88.9257 118.329 89.4393 118.85 89.838C119.387 90.2367 120.085 90.436 120.943 90.436C121.741 90.436 122.369 90.2597 122.829 89.907C123.289 89.5543 123.519 89.1097 123.519 88.573C123.519 88.021 123.274 87.6147 122.783 87.354C122.293 87.078 121.534 86.8097 120.506 86.549C119.571 86.3037 118.804 86.0583 118.206 85.813C117.624 85.5523 117.118 85.1767 116.688 84.686C116.274 84.18 116.067 83.5207 116.067 82.708C116.067 82.064 116.259 81.4737 116.642 80.937C117.026 80.4003 117.57 79.9787 118.275 79.672C118.981 79.35 119.786 79.189 120.69 79.189C122.086 79.189 123.213 79.5417 124.071 80.247C124.93 80.9523 125.39 81.9183 125.451 83.145H123.358C123.312 82.4857 123.044 81.9567 122.553 81.558C122.078 81.1593 121.434 80.96 120.621 80.96C119.87 80.96 119.272 81.121 118.827 81.443C118.383 81.765 118.16 82.1867 118.16 82.708C118.16 83.122 118.291 83.467 118.551 83.743C118.827 84.0037 119.165 84.2183 119.563 84.387C119.977 84.5403 120.545 84.7167 121.265 84.916C122.17 85.1613 122.906 85.4067 123.473 85.652C124.041 85.882 124.524 86.2347 124.922 86.71C125.336 87.1853 125.551 87.8063 125.566 88.573C125.566 89.263 125.375 89.884 124.991 90.436C124.608 90.988 124.064 91.425 123.358 91.747C122.668 92.0537 121.871 92.207 120.966 92.207ZM136.746 81.719C137.16 80.9983 137.773 80.4003 138.586 79.925C139.414 79.4343 140.372 79.189 141.461 79.189C142.58 79.189 143.592 79.4573 144.497 79.994C145.417 80.5307 146.138 81.2897 146.659 82.271C147.18 83.237 147.441 84.364 147.441 85.652C147.441 86.9247 147.18 88.0593 146.659 89.056C146.138 90.0527 145.417 90.827 144.497 91.379C143.592 91.931 142.58 92.207 141.461 92.207C140.388 92.207 139.437 91.9693 138.609 91.494C137.796 91.0033 137.175 90.3977 136.746 89.677V97.98H134.653V79.396H136.746V81.719ZM145.302 85.652C145.302 84.7013 145.11 83.8733 144.727 83.168C144.344 82.4627 143.822 81.926 143.163 81.558C142.519 81.19 141.806 81.006 141.024 81.006C140.257 81.006 139.544 81.1977 138.885 81.581C138.241 81.949 137.72 82.4933 137.321 83.214C136.938 83.9193 136.746 84.7397 136.746 85.675C136.746 86.6257 136.938 87.4613 137.321 88.182C137.72 88.8873 138.241 89.4317 138.885 89.815C139.544 90.183 140.257 90.367 141.024 90.367C141.806 90.367 142.519 90.183 143.163 89.815C143.822 89.4317 144.344 88.8873 144.727 88.182C145.11 87.4613 145.302 86.618 145.302 85.652ZM161.374 79.396V92H159.281V90.137C158.882 90.781 158.322 91.287 157.602 91.655C156.896 92.0077 156.114 92.184 155.256 92.184C154.274 92.184 153.393 91.9847 152.611 91.586C151.829 91.172 151.208 90.5587 150.748 89.746C150.303 88.9333 150.081 87.9443 150.081 86.779V79.396H152.151V86.503C152.151 87.745 152.465 88.7033 153.094 89.378C153.722 90.0373 154.581 90.367 155.67 90.367C156.789 90.367 157.671 90.022 158.315 89.332C158.959 88.642 159.281 87.6377 159.281 86.319V79.396H161.374ZM167.001 81.443C167.369 80.7223 167.89 80.1627 168.565 79.764C169.255 79.3653 170.09 79.166 171.072 79.166V81.328H170.52C168.174 81.328 167.001 82.6007 167.001 85.146V92H164.908V79.396H167.001V81.443ZM175.581 81.719C175.995 80.9983 176.608 80.4003 177.421 79.925C178.249 79.4343 179.207 79.189 180.296 79.189C181.415 79.189 182.427 79.4573 183.332 79.994C184.252 80.5307 184.972 81.2897 185.494 82.271C186.015 83.237 186.276 84.364 186.276 85.652C186.276 86.9247 186.015 88.0593 185.494 89.056C184.972 90.0527 184.252 90.827 183.332 91.379C182.427 91.931 181.415 92.207 180.296 92.207C179.222 92.207 178.272 91.9693 177.444 91.494C176.631 91.0033 176.01 90.3977 175.581 89.677V97.98H173.488V79.396H175.581V81.719ZM184.137 85.652C184.137 84.7013 183.945 83.8733 183.562 83.168C183.178 82.4627 182.657 81.926 181.998 81.558C181.354 81.19 180.641 81.006 179.859 81.006C179.092 81.006 178.379 81.1977 177.72 81.581C177.076 81.949 176.554 82.4933 176.156 83.214C175.772 83.9193 175.581 84.7397 175.581 85.675C175.581 86.6257 175.772 87.4613 176.156 88.182C176.554 88.8873 177.076 89.4317 177.72 89.815C178.379 90.183 179.092 90.367 179.859 90.367C180.641 90.367 181.354 90.183 181.998 89.815C182.657 89.4317 183.178 88.8873 183.562 88.182C183.945 87.4613 184.137 86.618 184.137 85.652ZM194.528 92.207C193.347 92.207 192.274 91.9387 191.308 91.402C190.357 90.8653 189.606 90.1063 189.054 89.125C188.517 88.1283 188.249 86.9783 188.249 85.675C188.249 84.387 188.525 83.2523 189.077 82.271C189.644 81.2743 190.411 80.5153 191.377 79.994C192.343 79.4573 193.424 79.189 194.62 79.189C195.816 79.189 196.897 79.4573 197.863 79.994C198.829 80.5153 199.588 81.2667 200.14 82.248C200.707 83.2293 200.991 84.3717 200.991 85.675C200.991 86.9783 200.699 88.1283 200.117 89.125C199.549 90.1063 198.775 90.8653 197.794 91.402C196.812 91.9387 195.724 92.207 194.528 92.207ZM194.528 90.367C195.279 90.367 195.984 90.1907 196.644 89.838C197.303 89.4853 197.832 88.9563 198.231 88.251C198.645 87.5457 198.852 86.687 198.852 85.675C198.852 84.663 198.652 83.8043 198.254 83.099C197.855 82.3937 197.334 81.8723 196.69 81.535C196.046 81.1823 195.348 81.006 194.597 81.006C193.83 81.006 193.125 81.1823 192.481 81.535C191.852 81.8723 191.346 82.3937 190.963 83.099C190.579 83.8043 190.388 84.663 190.388 85.675C190.388 86.7023 190.572 87.5687 190.94 88.274C191.323 88.9793 191.829 89.5083 192.458 89.861C193.086 90.1983 193.776 90.367 194.528 90.367ZM208.205 92.207C207.239 92.207 206.372 92.046 205.606 91.724C204.839 91.3867 204.233 90.9267 203.789 90.344C203.344 89.746 203.099 89.0637 203.053 88.297H205.215C205.276 88.9257 205.567 89.4393 206.089 89.838C206.625 90.2367 207.323 90.436 208.182 90.436C208.979 90.436 209.608 90.2597 210.068 89.907C210.528 89.5543 210.758 89.1097 210.758 88.573C210.758 88.021 210.512 87.6147 210.022 87.354C209.531 87.078 208.772 86.8097 207.745 86.549C206.809 86.3037 206.043 86.0583 205.445 85.813C204.862 85.5523 204.356 85.1767 203.927 84.686C203.513 84.18 203.306 83.5207 203.306 82.708C203.306 82.064 203.497 81.4737 203.881 80.937C204.264 80.4003 204.808 79.9787 205.514 79.672C206.219 79.35 207.024 79.189 207.929 79.189C209.324 79.189 210.451 79.5417 211.31 80.247C212.168 80.9523 212.628 81.9183 212.69 83.145H210.597C210.551 82.4857 210.282 81.9567 209.792 81.558C209.316 81.1593 208.672 80.96 207.86 80.96C207.108 80.96 206.51 81.121 206.066 81.443C205.621 81.765 205.399 82.1867 205.399 82.708C205.399 83.122 205.529 83.467 205.79 83.743C206.066 84.0037 206.403 84.2183 206.802 84.387C207.216 84.5403 207.783 84.7167 208.504 84.916C209.408 85.1613 210.144 85.4067 210.712 85.652C211.279 85.882 211.762 86.2347 212.161 86.71C212.575 87.1853 212.789 87.8063 212.805 88.573C212.805 89.263 212.613 89.884 212.23 90.436C211.846 90.988 211.302 91.425 210.597 91.747C209.907 92.0537 209.109 92.207 208.205 92.207ZM227.259 85.215C227.259 85.6137 227.236 86.0353 227.19 86.48H217.116C217.193 87.722 217.615 88.6957 218.381 89.401C219.163 90.091 220.106 90.436 221.21 90.436C222.115 90.436 222.866 90.229 223.464 89.815C224.078 89.3857 224.507 88.8183 224.752 88.113H227.006C226.669 89.3243 225.994 90.3133 224.982 91.08C223.97 91.8313 222.713 92.207 221.21 92.207C220.014 92.207 218.941 91.9387 217.99 91.402C217.055 90.8653 216.319 90.1063 215.782 89.125C215.246 88.1283 214.977 86.9783 214.977 85.675C214.977 84.3717 215.238 83.2293 215.759 82.248C216.281 81.2667 217.009 80.5153 217.944 79.994C218.895 79.4573 219.984 79.189 221.21 79.189C222.406 79.189 223.464 79.4497 224.384 79.971C225.304 80.4923 226.01 81.213 226.5 82.133C227.006 83.0377 227.259 84.065 227.259 85.215ZM225.097 84.778C225.097 83.9807 224.921 83.2983 224.568 82.731C224.216 82.1483 223.733 81.7113 223.119 81.42C222.521 81.1133 221.854 80.96 221.118 80.96C220.06 80.96 219.156 81.2973 218.404 81.972C217.668 82.6467 217.247 83.582 217.139 84.778H225.097ZM252.944 79.396L249.011 92H246.849L243.813 81.995L240.777 92H238.615L234.659 79.396H236.798L239.696 89.976L242.824 79.396H244.963L248.022 89.999L250.874 79.396H252.944ZM256.102 77.349C255.703 77.349 255.366 77.211 255.09 76.935C254.814 76.659 254.676 76.3217 254.676 75.923C254.676 75.5243 254.814 75.187 255.09 74.911C255.366 74.635 255.703 74.497 256.102 74.497C256.485 74.497 256.807 74.635 257.068 74.911C257.344 75.187 257.482 75.5243 257.482 75.923C257.482 76.3217 257.344 76.659 257.068 76.935C256.807 77.211 256.485 77.349 256.102 77.349ZM257.114 79.396V92H255.021V79.396H257.114ZM263.234 81.121V88.55C263.234 89.1633 263.364 89.6003 263.625 89.861C263.886 90.1063 264.338 90.229 264.982 90.229H266.523V92H264.637C263.472 92 262.598 91.7317 262.015 91.195C261.432 90.6583 261.141 89.7767 261.141 88.55V81.121H259.508V79.396H261.141V76.222H263.234V79.396H266.523V81.121H263.234ZM275.315 79.166C276.266 79.166 277.124 79.373 277.891 79.787C278.658 80.1857 279.256 80.7913 279.685 81.604C280.13 82.4167 280.352 83.4057 280.352 84.571V92H278.282V84.87C278.282 83.6127 277.968 82.6543 277.339 81.995C276.71 81.3203 275.852 80.983 274.763 80.983C273.659 80.983 272.777 81.328 272.118 82.018C271.474 82.708 271.152 83.7123 271.152 85.031V92H269.059V74.98H271.152V81.19C271.566 80.546 272.133 80.0477 272.854 79.695C273.59 79.3423 274.41 79.166 275.315 79.166Z" fill="black"/>
<path opacity="0.65" d="M828.864 55.298H834.476V57H826.771V40.969H828.864V55.298ZM848.199 50.215C848.199 50.6137 848.176 51.0353 848.13 51.48H838.056C838.132 52.722 838.554 53.6957 839.321 54.401C840.103 55.091 841.046 55.436 842.15 55.436C843.054 55.436 843.806 55.229 844.404 54.815C845.017 54.3857 845.446 53.8183 845.692 53.113H847.946C847.608 54.3243 846.934 55.3133 845.922 56.08C844.91 56.8313 843.652 57.207 842.15 57.207C840.954 57.207 839.88 56.9387 838.93 56.402C837.994 55.8653 837.258 55.1063 836.722 54.125C836.185 53.1283 835.917 51.9783 835.917 50.675C835.917 49.3717 836.177 48.2293 836.699 47.248C837.22 46.2667 837.948 45.5153 838.884 44.994C839.834 44.4573 840.923 44.189 842.15 44.189C843.346 44.189 844.404 44.4497 845.324 44.971C846.244 45.4923 846.949 46.213 847.44 47.133C847.946 48.0377 848.199 49.065 848.199 50.215ZM846.037 49.778C846.037 48.9807 845.86 48.2983 845.508 47.731C845.155 47.1483 844.672 46.7113 844.059 46.42C843.461 46.1133 842.794 45.96 842.058 45.96C841 45.96 840.095 46.2973 839.344 46.972C838.608 47.6467 838.186 48.582 838.079 49.778H846.037ZM850.179 50.652C850.179 49.364 850.44 48.237 850.961 47.271C851.483 46.2897 852.196 45.5307 853.1 44.994C854.02 44.4573 855.04 44.189 856.159 44.189C857.263 44.189 858.222 44.4267 859.034 44.902C859.847 45.3773 860.453 45.9753 860.851 46.696V44.396H862.967V57H860.851V54.654C860.437 55.39 859.816 56.0033 858.988 56.494C858.176 56.9693 857.225 57.207 856.136 57.207C855.017 57.207 854.005 56.931 853.1 56.379C852.196 55.827 851.483 55.0527 850.961 54.056C850.44 53.0593 850.179 51.9247 850.179 50.652ZM860.851 50.675C860.851 49.7243 860.66 48.8963 860.276 48.191C859.893 47.4857 859.372 46.949 858.712 46.581C858.068 46.1977 857.355 46.006 856.573 46.006C855.791 46.006 855.078 46.19 854.434 46.558C853.79 46.926 853.277 47.4627 852.893 48.168C852.51 48.8733 852.318 49.7013 852.318 50.652C852.318 51.618 852.51 52.4613 852.893 53.182C853.277 53.8873 853.79 54.4317 854.434 54.815C855.078 55.183 855.791 55.367 856.573 55.367C857.355 55.367 858.068 55.183 858.712 54.815C859.372 54.4317 859.893 53.8873 860.276 53.182C860.66 52.4613 860.851 51.6257 860.851 50.675ZM868.597 46.443C868.965 45.7223 869.487 45.1627 870.161 44.764C870.851 44.3653 871.687 44.166 872.668 44.166V46.328H872.116C869.77 46.328 868.597 47.6007 868.597 50.146V57H866.504V44.396H868.597V46.443ZM881.225 44.166C882.759 44.166 884.001 44.6337 884.951 45.569C885.902 46.489 886.377 47.823 886.377 49.571V57H884.307V49.87C884.307 48.6127 883.993 47.6543 883.364 46.995C882.736 46.3203 881.877 45.983 880.788 45.983C879.684 45.983 878.803 46.328 878.143 47.018C877.499 47.708 877.177 48.7123 877.177 50.031V57H875.084V44.396H877.177V46.19C877.591 45.546 878.151 45.0477 878.856 44.695C879.577 44.3423 880.367 44.166 881.225 44.166ZM890.877 42.349C890.479 42.349 890.141 42.211 889.865 41.935C889.589 41.659 889.451 41.3217 889.451 40.923C889.451 40.5243 889.589 40.187 889.865 39.911C890.141 39.635 890.479 39.497 890.877 39.497C891.261 39.497 891.583 39.635 891.843 39.911C892.119 40.187 892.257 40.5243 892.257 40.923C892.257 41.3217 892.119 41.659 891.843 41.935C891.583 42.211 891.261 42.349 890.877 42.349ZM891.889 44.396V57H889.796V44.396H891.889ZM901.598 44.166C903.131 44.166 904.373 44.6337 905.324 45.569C906.274 46.489 906.75 47.823 906.75 49.571V57H904.68V49.87C904.68 48.6127 904.365 47.6543 903.737 46.995C903.108 46.3203 902.249 45.983 901.161 45.983C900.057 45.983 899.175 46.328 898.516 47.018C897.872 47.708 897.55 48.7123 897.55 50.031V57H895.457V44.396H897.55V46.19C897.964 45.546 898.523 45.0477 899.229 44.695C899.949 44.3423 900.739 44.166 901.598 44.166ZM915.366 44.189C916.455 44.189 917.406 44.4267 918.218 44.902C919.046 45.3773 919.66 45.9753 920.058 46.696V44.396H922.174V57.276C922.174 58.426 921.929 59.4457 921.438 60.335C920.948 61.2397 920.242 61.945 919.322 62.451C918.418 62.957 917.36 63.21 916.148 63.21C914.492 63.21 913.112 62.819 912.008 62.037C910.904 61.255 910.253 60.1893 910.053 58.84H912.123C912.353 59.6067 912.829 60.22 913.549 60.68C914.27 61.1553 915.136 61.393 916.148 61.393C917.298 61.393 918.234 61.0327 918.954 60.312C919.69 59.5913 920.058 58.5793 920.058 57.276V54.631C919.644 55.367 919.031 55.9803 918.218 56.471C917.406 56.9617 916.455 57.207 915.366 57.207C914.247 57.207 913.227 56.931 912.307 56.379C911.403 55.827 910.69 55.0527 910.168 54.056C909.647 53.0593 909.386 51.9247 909.386 50.652C909.386 49.364 909.647 48.237 910.168 47.271C910.69 46.2897 911.403 45.5307 912.307 44.994C913.227 44.4573 914.247 44.189 915.366 44.189ZM920.058 50.675C920.058 49.7243 919.867 48.8963 919.483 48.191C919.1 47.4857 918.579 46.949 917.919 46.581C917.275 46.1977 916.562 46.006 915.78 46.006C914.998 46.006 914.285 46.19 913.641 46.558C912.997 46.926 912.484 47.4627 912.1 48.168C911.717 48.8733 911.525 49.7013 911.525 50.652C911.525 51.618 911.717 52.4613 912.1 53.182C912.484 53.8873 912.997 54.4317 913.641 54.815C914.285 55.183 914.998 55.367 915.78 55.367C916.562 55.367 917.275 55.183 917.919 54.815C918.579 54.4317 919.1 53.8873 919.483 53.182C919.867 52.4613 920.058 51.6257 920.058 50.675ZM931.061 50.675C931.061 49.3717 931.322 48.237 931.843 47.271C932.365 46.2897 933.085 45.5307 934.005 44.994C934.941 44.4573 936.006 44.189 937.202 44.189C938.751 44.189 940.024 44.5647 941.02 45.316C942.032 46.0673 942.699 47.11 943.021 48.444H940.767C940.553 47.6773 940.131 47.0717 939.502 46.627C938.889 46.1823 938.122 45.96 937.202 45.96C936.006 45.96 935.04 46.374 934.304 47.202C933.568 48.0147 933.2 49.1723 933.2 50.675C933.2 52.193 933.568 53.366 934.304 54.194C935.04 55.022 936.006 55.436 937.202 55.436C938.122 55.436 938.889 55.2213 939.502 54.792C940.116 54.3627 940.537 53.7493 940.767 52.952H943.021C942.684 54.24 942.009 55.275 940.997 56.057C939.985 56.8237 938.72 57.207 937.202 57.207C936.006 57.207 934.941 56.9387 934.005 56.402C933.085 55.8653 932.365 55.1063 931.843 54.125C931.322 53.1437 931.061 51.9937 931.061 50.675ZM956.992 44.396V57H954.899V55.137C954.5 55.781 953.941 56.287 953.22 56.655C952.515 57.0077 951.733 57.184 950.874 57.184C949.893 57.184 949.011 56.9847 948.229 56.586C947.447 56.172 946.826 55.5587 946.366 54.746C945.921 53.9333 945.699 52.9443 945.699 51.779V44.396H947.769V51.503C947.769 52.745 948.083 53.7033 948.712 54.378C949.341 55.0373 950.199 55.367 951.288 55.367C952.407 55.367 953.289 55.022 953.933 54.332C954.577 53.642 954.899 52.6377 954.899 51.319V44.396H956.992ZM962.619 46.443C962.987 45.7223 963.508 45.1627 964.183 44.764C964.873 44.3653 965.709 44.166 966.69 44.166V46.328H966.138C963.792 46.328 962.619 47.6007 962.619 50.146V57H960.526V44.396H962.619V46.443ZM973.798 55.068L977.708 44.396H979.939L974.994 57H972.556L967.611 44.396H969.865L973.798 55.068ZM993.499 50.215C993.499 50.6137 993.476 51.0353 993.43 51.48H983.356C983.432 52.722 983.854 53.6957 984.621 54.401C985.403 55.091 986.346 55.436 987.45 55.436C988.354 55.436 989.106 55.229 989.704 54.815C990.317 54.3857 990.746 53.8183 990.992 53.113H993.246C992.908 54.3243 992.234 55.3133 991.222 56.08C990.21 56.8313 988.952 57.207 987.45 57.207C986.254 57.207 985.18 56.9387 984.23 56.402C983.294 55.8653 982.558 55.1063 982.022 54.125C981.485 53.1283 981.217 51.9783 981.217 50.675C981.217 49.3717 981.477 48.2293 981.999 47.248C982.52 46.2667 983.248 45.5153 984.184 44.994C985.134 44.4573 986.223 44.189 987.45 44.189C988.646 44.189 989.704 44.4497 990.624 44.971C991.544 45.4923 992.249 46.213 992.74 47.133C993.246 48.0377 993.499 49.065 993.499 50.215ZM991.337 49.778C991.337 48.9807 991.16 48.2983 990.808 47.731C990.455 47.1483 989.972 46.7113 989.359 46.42C988.761 46.1133 988.094 45.96 987.358 45.96C986.3 45.96 985.395 46.2973 984.644 46.972C983.908 47.6467 983.486 48.582 983.379 49.778H991.337ZM998.423 54.102L995.847 60.289H994.444L996.123 54.102H998.423Z" fill="black"/>
<path opacity="0.4" d="M828.864 77.671V83.03H834.706V84.755H828.864V90.275H835.396V92H826.771V75.946H835.396V77.671H828.864ZM843.692 81.121H841.047V92H838.954V81.121H837.321V79.396H838.954V78.499C838.954 77.0883 839.314 76.061 840.035 75.417C840.771 74.7577 841.944 74.428 843.554 74.428V76.176C842.634 76.176 841.982 76.36 841.599 76.728C841.231 77.0807 841.047 77.671 841.047 78.499V79.396H843.692V81.121ZM851.261 81.121H848.616V92H846.523V81.121H844.89V79.396H846.523V78.499C846.523 77.0883 846.884 76.061 847.604 75.417C848.34 74.7577 849.513 74.428 851.123 74.428V76.176C850.203 76.176 849.552 76.36 849.168 76.728C848.8 77.0807 848.616 77.671 848.616 78.499V79.396H851.261V81.121ZM859.199 92.207C858.018 92.207 856.945 91.9387 855.979 91.402C855.028 90.8653 854.277 90.1063 853.725 89.125C853.188 88.1283 852.92 86.9783 852.92 85.675C852.92 84.387 853.196 83.2523 853.748 82.271C854.315 81.2743 855.082 80.5153 856.048 79.994C857.014 79.4573 858.095 79.189 859.291 79.189C860.487 79.189 861.568 79.4573 862.534 79.994C863.5 80.5153 864.259 81.2667 864.811 82.248C865.378 83.2293 865.662 84.3717 865.662 85.675C865.662 86.9783 865.37 88.1283 864.788 89.125C864.22 90.1063 863.446 90.8653 862.465 91.402C861.483 91.9387 860.395 92.207 859.199 92.207ZM859.199 90.367C859.95 90.367 860.655 90.1907 861.315 89.838C861.974 89.4853 862.503 88.9563 862.902 88.251C863.316 87.5457 863.523 86.687 863.523 85.675C863.523 84.663 863.323 83.8043 862.925 83.099C862.526 82.3937 862.005 81.8723 861.361 81.535C860.717 81.1823 860.019 81.006 859.268 81.006C858.501 81.006 857.796 81.1823 857.152 81.535C856.523 81.8723 856.017 82.3937 855.634 83.099C855.25 83.8043 855.059 84.663 855.059 85.675C855.059 86.7023 855.243 87.5687 855.611 88.274C855.994 88.9793 856.5 89.5083 857.129 89.861C857.757 90.1983 858.447 90.367 859.199 90.367ZM870.507 81.443C870.875 80.7223 871.396 80.1627 872.071 79.764C872.761 79.3653 873.596 79.166 874.578 79.166V81.328H874.026C871.68 81.328 870.507 82.6007 870.507 85.146V92H868.414V79.396H870.507V81.443ZM879.547 81.121V88.55C879.547 89.1633 879.677 89.6003 879.938 89.861C880.198 90.1063 880.651 90.229 881.295 90.229H882.836V92H880.95C879.784 92 878.91 91.7317 878.328 91.195C877.745 90.6583 877.454 89.7767 877.454 88.55V81.121H875.821V79.396H877.454V76.222H879.547V79.396H882.836V81.121H879.547ZM889.834 92.207C888.868 92.207 888.001 92.046 887.235 91.724C886.468 91.3867 885.862 90.9267 885.418 90.344C884.973 89.746 884.728 89.0637 884.682 88.297H886.844C886.905 88.9257 887.196 89.4393 887.718 89.838C888.254 90.2367 888.952 90.436 889.811 90.436C890.608 90.436 891.237 90.2597 891.697 89.907C892.157 89.5543 892.387 89.1097 892.387 88.573C892.387 88.021 892.141 87.6147 891.651 87.354C891.16 87.078 890.401 86.8097 889.374 86.549C888.438 86.3037 887.672 86.0583 887.074 85.813C886.491 85.5523 885.985 85.1767 885.556 84.686C885.142 84.18 884.935 83.5207 884.935 82.708C884.935 82.064 885.126 81.4737 885.51 80.937C885.893 80.4003 886.437 79.9787 887.143 79.672C887.848 79.35 888.653 79.189 889.558 79.189C890.953 79.189 892.08 79.5417 892.939 80.247C893.797 80.9523 894.257 81.9183 894.319 83.145H892.226C892.18 82.4857 891.911 81.9567 891.421 81.558C890.945 81.1593 890.301 80.96 889.489 80.96C888.737 80.96 888.139 81.121 887.695 81.443C887.25 81.765 887.028 82.1867 887.028 82.708C887.028 83.122 887.158 83.467 887.419 83.743C887.695 84.0037 888.032 84.2183 888.431 84.387C888.845 84.5403 889.412 84.7167 890.133 84.916C891.037 85.1613 891.773 85.4067 892.341 85.652C892.908 85.882 893.391 86.2347 893.79 86.71C894.204 87.1853 894.418 87.8063 894.434 88.573C894.434 89.263 894.242 89.884 893.859 90.436C893.475 90.988 892.931 91.425 892.226 91.747C891.536 92.0537 890.738 92.207 889.834 92.207ZM898.055 92.138C897.657 92.138 897.319 92 897.043 91.724C896.767 91.448 896.629 91.1107 896.629 90.712C896.629 90.3133 896.767 89.976 897.043 89.7C897.319 89.424 897.657 89.286 898.055 89.286C898.439 89.286 898.761 89.424 899.021 89.7C899.297 89.976 899.435 90.3133 899.435 90.712C899.435 91.1107 899.297 91.448 899.021 91.724C898.761 92 898.439 92.138 898.055 92.138Z" fill="black"/>
<g clip-path="url(#clip0_506_189)">
<g opacity="0.8">
<path d="M381.35 3H391.4V93H381.95V22.2L350.6 93H342.65L311.6 21.9V93H302V3H312.2L346.7 81.45L381.35 3Z" fill="#999999"/>
<path d="M414.078 93V3H423.678V93H414.078Z" fill="#999999"/>
<path d="M510.791 3H520.241V93H511.241L455.741 19.05V93H446.141V3H455.141L510.791 76.95V3Z" fill="#999999"/>
<path d="M542.867 93V3H552.467V93H542.867Z" fill="#999999"/>
<path d="M654.28 3H664.33V93H654.88V22.2L623.53 93H615.58L584.53 21.9V93H574.93V3H585.13L619.63 81.45L654.28 3Z" fill="#999999"/>
<path d="M740.558 93L733.208 72H693.158L685.808 93H675.308L707.858 3H718.508L751.058 93H740.558ZM696.308 62.85H730.058L713.258 14.4L696.308 62.85Z" fill="#999999"/>
<path d="M771.561 83.4H805.011V93H761.961V3H771.561V83.4Z" fill="#999999"/>
</g>
</g>
<g clip-path="url(#clip1_506_189)">
<g opacity="0.8">
<path d="M381.35 3H391.4V93H381.95V22.2L350.6 93H342.65L311.6 21.9V93H302V3H312.2L346.7 81.45L381.35 3Z" fill="#595959"/>
<path d="M414.078 93V3H423.678V93H414.078Z" fill="#595959"/>
<path d="M510.791 3H520.241V93H511.241L455.741 19.05V93H446.141V3H455.141L510.791 76.95V3Z" fill="#595959"/>
<path d="M542.867 93V3H552.467V93H542.867Z" fill="#595959"/>
<path d="M654.28 3H664.33V93H654.88V22.2L623.53 93H615.58L584.53 21.9V93H574.93V3H585.13L619.63 81.45L654.28 3Z" fill="#595959"/>
<path d="M740.558 93L733.208 72H693.158L685.808 93H675.308L707.858 3H718.508L751.058 93H740.558ZM696.308 62.85H730.058L713.258 14.4L696.308 62.85Z" fill="#595959"/>
<path d="M771.561 83.4H805.011V93H761.961V3H771.561V83.4Z" fill="#595959"/>
</g>
</g>
<g clip-path="url(#clip2_506_189)">
<g opacity="0.8">
<path d="M381.35 3H391.4V93H381.95V22.2L350.6 93H342.65L311.6 21.9V93H302V3H312.2L346.7 81.45L381.35 3Z" fill="black"/>
<path d="M414.078 93V3H423.678V93H414.078Z" fill="black"/>
<path d="M510.791 3H520.241V93H511.241L455.741 19.05V93H446.141V3H455.141L510.791 76.95V3Z" fill="black"/>
<path d="M542.867 93V3H552.467V93H542.867Z" fill="black"/>
<path d="M654.28 3H664.33V93H654.88V22.2L623.53 93H615.58L584.53 21.9V93H574.93V3H585.13L619.63 81.45L654.28 3Z" fill="black"/>
<path d="M740.558 93L733.208 72H693.158L685.808 93H675.308L707.858 3H718.508L751.058 93H740.558ZM696.308 62.85H730.058L713.258 14.4L696.308 62.85Z" fill="black"/>
<path d="M771.561 83.4H805.011V93H761.961V3H771.561V83.4Z" fill="black"/>
</g>
</g>
<defs>
<clipPath id="clip0_506_189">
<rect width="503" height="31" fill="white" transform="translate(302 62)"/>
</clipPath>
<clipPath id="clip1_506_189">
<rect width="503" height="28" fill="white" transform="translate(302 34)"/>
</clipPath>
<clipPath id="clip2_506_189">
<rect width="503" height="31" fill="white" transform="translate(302 3)"/>
</clipPath>
</defs>
</svg>
