<svg width="24" height="24" viewBox="0 0 24 24" fill="none" xmlns="http://www.w3.org/2000/svg">
<path d="M21.995 22L22 21.9992V15.0331C22 11.6252 21.2231 9 17.004 9C14.9758 9 13.6147 10.051 13.059 11.0474H13.0003V9.31815H9V21.9992H13.1654V15.72C13.1654 14.0667 13.4973 12.468 15.6655 12.468C17.8019 12.468 17.8337 14.3548 17.8337 15.8261V22H21.995Z" fill="black"/>
<path d="M1 9H6V22H1V9Z" fill="black"/>
<path d="M3.5 2C2.11988 2 1 3.11466 1 4.48834C1 5.86203 2.11988 7 3.5 7C4.88012 7 6 5.86203 6 4.48834C5.99913 3.11466 4.87925 2 3.5 2Z" fill="black"/>
</svg>

