<svg width="24" height="24" viewBox="0 0 24 24" fill="none" xmlns="http://www.w3.org/2000/svg">
<path d="M12.7873 12C12.7873 15.3546 10.0878 18.0652 6.76866 18.0652C3.44946 18.0652 0.75 15.3546 0.75 12C0.75 8.64554 3.44946 5.93494 6.76866 5.93494C10.0878 5.93494 12.7873 8.64554 12.7873 12Z" fill="black" stroke="black" stroke-width="1.5"/>
<path d="M20.2127 12.0001C20.2127 13.6746 19.8531 15.1534 19.3081 16.1864C18.7452 17.2535 18.0969 17.6653 17.5784 17.6653C17.0599 17.6653 16.4117 17.2535 15.8487 16.1864C15.3038 15.1534 14.9441 13.6746 14.9441 12.0001C14.9441 10.3255 15.3038 8.84668 15.8487 7.81376C16.4117 6.74663 17.0599 6.33484 17.5784 6.33484C18.0969 6.33484 18.7452 6.74664 19.3082 7.81375C19.8531 8.84667 20.2127 10.3255 20.2127 12.0001Z" fill="black" stroke="black" stroke-width="1.5"/>
<path d="M23.2501 12.0001C23.2501 13.5521 23.1193 14.9356 22.917 15.9123C22.8822 16.0804 22.8462 16.2319 22.8098 16.3669C22.7734 16.2319 22.7373 16.0804 22.7025 15.9123C22.5003 14.9357 22.3695 13.5521 22.3695 12.0001C22.3695 10.4481 22.5003 9.06452 22.7025 8.08787C22.7373 7.91975 22.7734 7.76825 22.8098 7.63329C22.8462 7.76825 22.8822 7.91976 22.917 8.08788C23.1193 9.06453 23.2501 10.4481 23.2501 12.0001Z" fill="black" stroke="black" stroke-width="1.5"/>
</svg>
